<svg xmlns="http://www.w3.org/2000/svg" width="30" height="30" viewBox="0 0 30 30">
  <g id="Group_4633" data-name="Group 4633" transform="translate(-906 -1497)">
    <circle id="Ellipse_3" data-name="Ellipse 3" cx="15" cy="15" r="15" transform="translate(906 1497)" fill="#e4edfb"/>
    <path id="Icon_awesome-check" data-name="Icon awesome-check" d="M3.845,12.853.166,9.174a.566.566,0,0,1,0-.8l.8-.8a.566.566,0,0,1,.8,0l2.479,2.479L9.554,4.743a.566.566,0,0,1,.8,0l.8.8a.566.566,0,0,1,0,.8L4.646,12.853A.566.566,0,0,1,3.845,12.853Z" transform="translate(915.34 1503.202)" fill="#d4612a"/>
  </g>
</svg>
