<svg xmlns="http://www.w3.org/2000/svg" width="15.999" height="16" viewBox="0 0 15.999 16">
  <path id="Icon_ionic-ios-person" data-name="Icon ionic-ios-person" d="M20.492,20.1c-.3-1.325-2.012-1.971-2.6-2.179a19.415,19.415,0,0,0-2.171-.417,2.206,2.206,0,0,1-1-.462,8.776,8.776,0,0,1-.067-2.054,6.18,6.18,0,0,0,.475-.9,11.662,11.662,0,0,0,.35-1.579s.342,0,.462-.6a5.9,5.9,0,0,0,.308-1.4c-.025-.479-.287-.467-.287-.467A7.305,7.305,0,0,0,16.238,7.9,3.433,3.433,0,0,0,12.5,4.5,3.418,3.418,0,0,0,8.767,7.9a7.62,7.62,0,0,0,.279,2.137s-.262-.012-.287.467a5.9,5.9,0,0,0,.308,1.4c.117.6.462.6.462.6a11.662,11.662,0,0,0,.35,1.579,6.18,6.18,0,0,0,.475.9,8.776,8.776,0,0,1-.067,2.054,2.206,2.206,0,0,1-1,.462,19.415,19.415,0,0,0-2.171.417c-.592.208-2.3.854-2.6,2.179a.333.333,0,0,0,.329.4H20.167A.332.332,0,0,0,20.492,20.1Z" transform="translate(-4.501 -4.5)" fill="#a9afb6"/>
</svg>
