<svg width="239" height="159" viewBox="0 0 239 159" fill="none" xmlns="http://www.w3.org/2000/svg">
<path d="M0 83.5602H24.7086V24.7086H42.6786C46.0438 24.7086 54.8083 28.7519 55.2575 40.8816C55.7068 53.0113 48.0695 60.1992 42.6786 60.1992H30.0996V83.5602H42.6786C54.6491 83.5602 80.8647 76.3722 79.9662 40.8816C79.0677 5.39096 47.6203 -0.000606046 42.6786 0C27.4041 0.00187333 0 0 0 0V83.5602Z" fill="#191B3E"/>
<path d="M110.517 44.9248C110.275 33.9993 118.471 23.7184 129.386 24.2594C137.689 24.671 143.715 30.8621 145.73 38.6353L172.838 37.2876C169.434 16.2805 151.351 0 129.386 0C104.821 0 85.1111 20.3616 85.3593 44.9248C85.6048 69.2386 105.071 88.9511 129.386 88.9511C153.099 88.9511 172.2 70.2025 173.359 46.7218H146.35C145.433 56.1648 138.97 64.2141 129.386 64.6917C118.727 65.2228 110.754 55.5939 110.517 44.9248Z" fill="#191B3E"/>
<path d="M239 0H176.105V24.7086H194.974V83.5601H219.683V24.7086H239V0Z" fill="#191B3E"/>
<path d="M215.554 118.602V143.76H217.8H220.047V118.602V93.4437H217.8H215.554V118.602Z" fill="#191B3E"/>
<path d="M123.907 97.0377C123.907 99.2839 124.267 99.7332 126.153 99.7332C128.04 99.7332 128.4 99.2839 128.4 97.0377C128.4 94.7914 128.04 94.3422 126.153 94.3422C124.267 94.3422 123.907 94.7914 123.907 97.0377Z" fill="#191B3E"/>
<path d="M140.979 104.674C140.979 108.358 140.799 108.718 138.823 108.718C137.115 108.718 136.666 109.167 136.846 110.964C136.936 112.581 137.475 113.21 138.823 113.21C140.709 113.21 140.799 113.659 141.159 125.969C141.428 133.067 141.878 139.536 142.327 140.435C143.944 144.208 153.199 145.915 159.668 143.669C162.633 142.681 164.34 139.267 164.34 134.684C164.34 132.528 163.981 132.079 162.094 132.079C160.207 132.079 159.847 132.528 159.847 134.684C159.847 138.817 157.691 140.255 152.39 139.985C146.011 139.626 145.382 138.188 145.651 124.441L145.921 113.659L154.726 113.39C163.352 113.12 163.441 113.12 163.441 110.964C163.441 108.718 163.441 108.718 154.456 108.718H145.471V104.674C145.471 100.991 145.292 100.631 143.225 100.631C141.159 100.631 140.979 100.991 140.979 104.674Z" fill="#191B3E"/>
<path d="M51.1295 107.909C46.8167 108.718 43.043 112.042 43.043 115.097C43.043 117.433 47.1761 117.523 47.9848 115.187C48.7934 112.581 52.2077 111.503 58.4073 111.863C65.6852 112.312 67.3024 114.019 67.3024 120.937C67.3024 123.633 67.1227 125.789 66.8532 125.789C66.5837 125.789 65.4156 125.16 64.3374 124.442C59.216 121.117 46.2776 122.105 43.4923 126.059C41.875 128.305 41.6055 137.56 43.1329 140.345C44.4806 142.861 49.3325 144.658 54.993 144.658C60.1145 144.658 65.5055 143.22 65.5055 141.872C65.5055 141.423 65.9547 141.064 66.404 141.064C66.943 141.064 67.3024 141.693 67.3024 142.411C67.3024 143.22 68.1111 143.759 69.5487 143.759H71.7949V129.473C71.7949 114.199 71.2558 111.324 68.0212 109.257C65.3258 107.64 56.2509 106.831 51.1295 107.909ZM65.4156 128.844C68.1111 131.27 68.0212 136.841 65.3258 138.728C62.181 140.974 50.1412 140.704 48.0746 138.458C45.6487 135.763 46.4573 129.293 49.3325 127.766C52.657 126.059 63.0795 126.688 65.4156 128.844Z" fill="#191B3E"/>
<path d="M181.052 108.179C176.829 109.796 176.2 110.335 175.211 113.929C174.403 116.625 174.493 116.805 176.739 116.805C178.446 116.805 179.434 116.176 180.063 114.828C181.142 112.312 185.634 111.234 191.564 111.953C197.404 112.672 198.483 114.019 198.483 120.488C198.483 123.364 198.303 125.79 198.033 125.79C197.764 125.79 196.416 125.071 195.158 124.172C191.834 122.016 179.974 122.016 176.649 124.262C173.864 126.059 172.875 130.282 173.684 136.392C174.493 142.681 176.38 143.939 184.915 144.478C191.115 144.838 192.552 144.658 195.338 142.951C198.033 141.423 198.662 141.334 199.022 142.412C199.381 143.131 200.369 143.76 201.268 143.76C202.885 143.76 202.975 142.861 202.975 128.934C202.975 108.538 202.975 108.628 189.947 107.46C186.443 107.101 183.388 107.37 181.052 108.179ZM195.338 127.946C198.303 129.204 198.483 129.563 198.483 133.337C198.483 138.908 196.506 140.166 187.97 140.166C182.579 140.166 181.052 139.806 179.614 138.369C176.469 135.224 177.548 128.665 181.411 127.317C184.196 126.329 192.373 126.688 195.338 127.946Z" fill="#191B3E"/>
<path d="M7.3726 109.616C3.68876 111.863 2.61057 115.726 2.70042 126.688C2.79027 141.693 5.30606 144.658 17.7053 144.658C27.8583 144.658 33.1594 141.154 33.1594 134.325C33.1594 132.528 32.7102 132.079 30.9132 132.079C29.1162 132.079 28.667 132.528 28.667 134.325C28.667 138.458 25.5222 140.165 17.885 140.165C7.64215 140.165 7.5523 140.075 7.5523 126.328C7.5523 117.343 7.82185 114.828 8.98989 113.66C10.8767 111.773 18.4241 110.964 23.0064 112.222C26.0613 113.031 26.9598 113.839 27.8583 116.355C28.7568 118.691 29.5655 119.5 31.0929 119.5C33.5188 119.5 33.6985 118.062 31.9015 113.66C30.0147 109.257 26.6004 107.819 17.7053 107.819C11.8651 107.819 9.61884 108.179 7.3726 109.616Z" fill="#191B3E"/>
<path d="M92.7296 108.898C91.5616 109.437 90.4834 110.605 90.2138 111.503C89.4052 113.929 87.9676 113.57 87.9676 110.964C87.9676 109.167 87.5183 108.718 85.7213 108.718H83.4751V133.427V158.135H85.7213C87.9676 158.135 87.9676 158.135 87.9676 149.33C87.9676 144.478 88.2371 140.255 88.5067 139.896C88.7762 139.626 89.9443 140.435 91.1123 141.783C92.9093 143.849 93.9875 144.209 99.2886 144.478C106.297 144.838 110.7 142.861 112.227 138.728C112.766 137.47 113.125 131.45 113.125 125.34C113.125 114.289 113.125 114.109 110.52 111.234C108.094 108.538 107.465 108.269 101.355 108.089C97.6713 107.909 93.8078 108.269 92.7296 108.898ZM107.106 114.199C108.363 115.816 108.633 117.883 108.633 126.328C108.633 139.087 107.914 140.165 99.648 140.165C95.0657 140.165 93.8977 139.806 91.5616 137.65C89.2255 135.673 88.6864 134.325 88.2371 130.192C87.6082 123.723 88.5067 117.883 90.5732 115.187C93.6281 111.144 103.961 110.515 107.106 114.199Z" fill="#191B3E"/>
<path d="M123.907 126.239V143.76H126.153H128.4V126.239V108.718H126.153H123.907V126.239Z" fill="#191B3E"/>
</svg>
