<svg width="463" height="200" viewBox="0 0 463 200" fill="none" xmlns="http://www.w3.org/2000/svg">
<g clip-path="url(#clip0_495_24311)">
<path fill-rule="evenodd" clip-rule="evenodd" d="M82.6023 155.376C89.6867 152.25 96.0399 147.937 101.514 142.438L101.519 142.439C101.547 142.411 101.562 142.373 101.562 142.333C101.562 142.294 101.547 142.255 101.519 142.227L101.402 142.113C94.3161 135.11 83.7814 133.164 74.6241 137.01C69.9818 138.959 64.931 139.934 59.4352 139.934C48.5887 139.934 39.2301 136.186 31.3555 128.238C23.6318 120.441 19.916 110.996 19.916 100.046C19.916 89.0963 23.6318 79.5034 31.3555 71.7011C36.8888 66.116 43.1551 62.604 50.1507 61.0109C50.8578 60.8496 51.5731 60.7077 52.2967 60.5853C53.5872 60.366 54.9028 60.209 56.2434 60.1142H56.3045C57.3307 60.0424 58.3723 60.0065 59.4293 60.0065C61.4738 60.0032 63.5159 60.1471 65.5398 60.4371C68.6595 60.8789 71.71 61.718 74.6172 62.9339C74.6389 62.9427 74.6616 62.9506 74.6823 62.9605C78.1878 64.4039 82.0356 64.8014 85.7617 64.1052C91.5051 63.0524 96.8844 60.9388 101.307 57.8288L101.444 57.73L101.475 57.7093L101.491 57.6964C101.519 57.6676 101.535 57.629 101.535 57.5888C101.535 57.5485 101.519 57.5099 101.491 57.4811L101.326 57.3192C101.27 57.2611 101.213 57.2052 101.156 57.1494L101.089 57.0831C95.7143 51.7815 89.5071 47.6097 82.6004 44.5609C75.3207 41.4113 67.5941 39.9121 59.4254 39.9121C42.9371 39.9121 28.9717 45.7609 17.5302 57.6095C5.79473 69.3061 0 83.5507 0 100.046C0 116.542 5.79473 130.637 17.5302 142.331C28.9697 154.18 42.9341 160.026 59.4254 160.026C67.598 160.026 75.3237 158.525 82.6023 155.376ZM93.4749 98.1992H59.1604C59.1604 110.602 70.9403 120.656 85.471 120.656H93.4749C96.9638 120.656 100.311 119.473 102.777 117.367C111.064 110.294 105.195 98.1992 93.4749 98.1992ZM156.519 56.9245L152.726 60.6775C150.327 58.136 147.529 56.8653 144.332 56.8653C141.548 56.8653 139.215 57.7894 137.334 59.6375C135.453 61.4857 134.513 63.7333 134.514 66.3801C134.514 69.1145 135.49 71.4315 137.441 73.3311C139.392 75.2306 141.799 76.1807 144.663 76.1814C146.525 76.1814 148.093 75.7896 149.369 75.0061C150.646 74.2226 151.676 72.9969 152.462 71.3292H144.272V66.2616H158.505L158.546 67.4566C158.546 69.9349 157.904 72.2842 156.622 74.5044C155.339 76.7246 153.678 78.4187 151.638 79.5868C149.599 80.7561 147.207 81.3401 144.464 81.3388C141.527 81.3388 138.907 80.7001 136.604 79.4228C134.3 78.1455 132.479 76.3259 131.141 73.9642C129.811 71.6374 129.118 69.0005 129.133 66.3199C129.133 62.5721 130.37 59.3129 132.846 56.5423C135.782 53.2416 139.603 51.5916 144.31 51.5923C146.681 51.5747 149.031 52.0397 151.217 52.9592C153.019 53.7282 154.787 55.05 156.519 56.9245ZM213.036 52.3037H207.572L196.665 80.6281H202.261L204.563 74.7931H216.107L218.32 80.6281H223.919L213.036 52.3037ZM206.541 69.5419L210.335 59.8097L214.108 69.5419H206.541ZM263.541 52.3037H268.927V75.4864H276.776V80.6281H263.541V52.3037ZM330.427 52.3037H324.964L314.053 80.6281H319.651L321.952 74.7931H333.496L335.712 80.6281H341.31L330.427 52.3037ZM323.932 69.5419L327.727 59.8097L331.503 69.5419H323.932ZM379.096 52.3037H385.155L391.102 61.3978L397.063 52.3037H403.115L394.137 66.0368L403.68 80.6281H397.62L391.107 70.6698L384.595 80.6281H378.498L388.069 66.0239L379.096 52.3037ZM446.963 52.3037H441.175L449.499 68.3626V80.6281H454.926V68.3626L463.207 52.3037H457.497L452.243 62.4931L446.963 52.3037ZM154.131 148.578H149.324L130.902 98.6084H140.516L151.912 131.921L163.95 98.6084H173.358L154.131 148.578ZM187.31 117.923V106.38H210.002V98.6084H178.57V147.904H209.633V140.131H187.31V125.359H203.58V117.923H187.31ZM250.039 148.578L226.138 117.384V147.938H217.733V98.6084H221.935L245.198 128.354V98.6084H253.603V148.583L250.039 148.578ZM283.723 147.903V106.38H300.095V98.6074H259.317V106.38H274.986V147.903H283.723ZM305.81 98.6084H314.552V132.022C314.552 134.669 315.359 136.823 316.972 138.483C318.586 140.144 320.805 140.974 323.628 140.973C326.786 140.973 329.245 140.16 331.007 138.533C332.768 136.907 333.648 134.681 333.646 131.854V98.6084H342.387V132.527C342.387 137.597 340.689 141.567 337.293 144.439C333.897 147.31 329.364 148.747 323.694 148.75C317.979 148.75 313.569 147.347 310.465 144.543C307.361 141.739 305.809 137.723 305.81 132.494V98.6084ZM367.094 127.548L380.237 147.905H390.321L375.766 125.697C378.387 124.71 380.56 123.016 382.287 120.616C384.013 118.215 384.876 115.557 384.876 112.641C384.876 102.95 378.623 98.1045 366.117 98.1045C364.101 98.1038 361.446 98.1878 358.151 98.3563C354.855 98.5249 352.961 98.6092 352.469 98.6092V147.905H361.547V127.312C363.921 127.446 365.77 127.525 367.094 127.548ZM361.547 119.911V106.213C362.527 106.081 363.515 106.013 364.505 106.01C368.404 106.008 371.261 106.49 373.077 107.455C374.892 108.421 375.8 110.114 375.8 112.537C375.801 115.521 374.955 117.53 373.262 118.561C371.57 119.593 368.897 120.109 365.245 120.109C364.394 120.109 363.161 120.043 361.547 119.911ZM403.264 106.38V117.923H419.534V125.359H403.263V140.131H425.585V147.904H394.523V98.6084H425.955V106.38H403.264ZM434.562 137.338L431.335 145.179C435.032 147.559 439.178 148.749 443.773 148.749C449.061 148.742 453.28 147.448 456.429 144.868C459.578 142.288 461.152 139.001 461.152 135.008C461.152 132.787 460.771 130.774 460.009 128.969C459.25 127.17 458.115 125.554 456.681 124.228C455.224 122.872 452.849 121.386 449.555 119.77C443.302 116.719 440.175 113.78 440.175 110.955C440.176 109.25 440.731 107.865 441.84 106.799C442.949 105.733 444.512 105.2 446.528 105.2C449.935 105.2 453.174 106.3 456.244 108.498L458.9 100.961C456.232 98.8293 452.053 97.7637 446.361 97.7637C441.991 97.763 438.411 99.0193 435.621 101.532C432.831 104.046 431.435 107.209 431.435 111.022C431.436 113.063 431.788 114.925 432.492 116.61C433.177 118.263 434.209 119.749 435.518 120.968C436.828 122.19 439.372 123.749 443.149 125.646C446.925 127.541 449.418 129.251 450.628 130.776C451.838 132.301 452.444 133.905 452.444 135.588C452.444 139.178 449.878 140.973 444.748 140.973C441.407 140.972 438.012 139.76 434.562 137.338Z" fill="#191B3E"/>
</g>
<defs>
<clipPath id="clip0_495_24311">
<rect width="463" height="200" fill="white"/>
</clipPath>
</defs>
</svg>
