<svg width="373" height="217" viewBox="0 0 373 217" fill="none" xmlns="http://www.w3.org/2000/svg">
<path fill-rule="evenodd" clip-rule="evenodd" d="M186.676 0.00141121C191.625 0.0886359 195.559 4.11117 195.559 9.08298C195.559 9.35144 195.548 9.61714 195.525 9.87959L242.99 37.3098C243.949 36.6876 245.098 36.3277 246.321 36.3277C249.607 36.3277 252.349 38.9227 252.349 42.2227C252.349 44.6166 250.906 46.6395 248.859 47.57V102.558C252.05 103.96 254.286 107.178 254.253 110.892C254.209 115.864 250.161 119.858 245.211 119.814C243.318 119.798 241.57 119.199 240.135 118.188L193.966 144.669C193.971 144.775 193.973 144.881 193.973 144.988C193.973 149.035 190.706 152.317 186.676 152.317C182.646 152.317 179.379 149.035 179.379 144.988C179.379 144.881 179.381 144.775 179.386 144.669L133.766 118.104C132.224 119.283 130.271 119.974 128.141 119.974C123.103 119.974 119.055 116.111 119.099 111.051C119.131 107.342 121.33 104.152 124.493 102.742V47.701C122.289 46.8374 120.685 44.7283 120.685 42.2227C120.685 38.8778 123.543 36.2397 126.872 36.3277C128.109 36.3604 129.257 36.7527 130.203 37.4065L177.543 10.1982C177.498 9.83267 177.475 9.46047 177.475 9.08298C177.475 4.02318 181.639 -0.0873572 186.676 0.00141121ZM132.741 42.2227C132.741 44.8679 131.006 47.0497 128.617 47.8208V101.982C128.939 101.999 129.257 102.033 129.569 102.083L179.696 15.0311C179.403 14.6928 179.135 14.3327 178.893 13.9535L132.636 41.1074C132.705 41.4676 132.741 41.8403 132.741 42.2227ZM174.62 77.3223C172.083 77.999 170.178 80.2597 170.178 83.0101C170.178 83.2807 170.197 83.5466 170.233 83.8067L134.406 104.519C134.112 104.233 133.799 103.967 133.469 103.722L183.054 17.4698L174.62 77.3223ZM210.471 59.5892C210.428 57.9998 211.026 56.5365 212.025 55.4467L190.007 17.4698C189.12 17.8406 188.16 18.0741 187.152 18.1439L178.744 77.6629C179.139 77.8422 179.511 78.0622 179.855 78.3176L210.545 60.3858C210.503 60.1259 210.478 59.86 210.471 59.5892ZM236.453 109.299H137.003C136.926 108.918 136.827 108.546 136.706 108.184L172.266 87.4712C173.329 88.3678 174.711 88.9051 176.206 88.9051C177.949 88.9051 179.539 88.175 180.648 86.9968L236.453 109.299ZM180.847 140.579C182.178 138.805 184.294 137.659 186.676 137.659C189.061 137.659 191.179 138.808 192.51 140.585L237.283 114.875C237.103 114.517 236.946 114.144 236.815 113.76H136.795C136.682 114.126 136.547 114.481 136.39 114.824L180.847 140.579ZM123.223 111.051C123.308 113.778 125.425 115.991 128.141 115.991C130.857 115.991 132.974 113.778 133.059 111.051C133.146 108.236 130.946 105.794 128.141 105.794C125.336 105.794 123.136 108.236 123.223 111.051ZM186.676 3.82523C183.828 3.82523 181.556 6.2232 181.6 9.08298C181.643 11.8984 183.872 14.1814 186.676 14.1814C189.479 14.1814 191.709 11.8984 191.752 9.08298C191.796 6.2232 189.523 3.82523 186.676 3.82523ZM240.135 110.892C240.046 107.945 242.276 105.475 245.211 105.475C248.146 105.475 250.376 107.945 250.287 110.892C250.201 113.751 248.058 115.991 245.211 115.991C242.363 115.991 240.221 113.751 240.135 110.892ZM182.127 81.8948C182.198 82.2552 182.234 82.6279 182.234 83.0101C182.234 83.0634 182.234 83.1165 182.232 83.1694L237.914 105.697C238.433 104.944 239.063 104.273 239.782 103.71L217.609 65.1888C217.201 65.278 216.776 65.3249 216.34 65.3249C214.953 65.3249 213.682 64.8501 212.679 64.0503L182.127 81.8948ZM222.209 59.5892C222.298 56.2904 219.626 53.5348 216.34 53.5348C216.104 53.5348 215.871 53.5491 215.642 53.5767L193.497 14.8715C193.736 14.5803 193.958 14.2737 194.16 13.9535L240.452 40.869C240.348 41.3025 240.293 41.7556 240.293 42.2227C240.293 44.8572 242.041 47.0424 244.418 47.8166V101.852C244.15 101.878 243.885 101.916 243.625 101.965L221.099 62.8978C221.77 61.968 222.176 60.8298 222.209 59.5892Z" fill="#191B3E"/>
<path d="M15.9171 209.747C14.9338 211.345 13.336 212.82 11.3694 212.82C4.85504 212.82 3.87174 201.88 3.87174 193.89C3.87174 185.531 4.85504 175.513 11.3694 175.513C12.9673 175.513 15.1797 176.066 17.2077 179.754L20.0347 177.787C18.191 173.915 14.688 171.948 11.984 171.948C4.05611 171.948 0 179.385 0 194.996C0 209.378 3.81028 216.446 10.7548 216.446C12.9058 216.446 14.7495 215.463 16.0401 213.865L16.2859 215.832H19.666V191.001H15.9171V209.747Z" fill="#191B3E"/>
<path d="M43.0548 215.832H46.8037L37.6467 172.808H33.0989L24.4336 215.832H28.0595L31.5011 198.008L41.7028 209.132L43.0548 215.832ZM32.3615 193.89L35.3728 178.279L40.4122 202.679L32.3615 193.89Z" fill="#191B3E"/>
<path d="M68.8343 172.808V186.33L57.5263 172.808H53.7775V215.832H57.5263V178.524L68.8343 192.046V215.832H72.5831V172.808H68.8343Z" fill="#191B3E"/>
<path d="M98.3294 215.832H102.078L92.9212 172.808H88.3735L79.7082 215.832H83.3341L86.7756 198.008L96.9773 209.132L98.3294 215.832ZM87.636 193.89L90.6474 178.279L95.6868 202.679L87.636 193.89Z" fill="#191B3E"/>
<path d="M121.99 208.948C120.76 211.283 119.47 212.82 116.704 212.82C109.883 212.82 108.899 201.88 108.899 193.214C108.899 185.531 109.883 175.513 116.397 175.513C117.995 175.513 120.207 176.066 122.235 179.754L125.062 177.787C123.28 173.915 119.716 171.948 117.012 171.948C109.084 171.948 105.028 179.385 105.028 194.136C105.028 209.378 108.838 216.446 116.397 216.446C120.207 216.446 123.28 214.357 125.062 210.669L121.99 208.948Z" fill="#191B3E"/>
<path d="M143.132 215.832H146.881V172.808H143.132V183.564H134.467V172.808H130.718V215.832H134.467V186.883H143.132V215.832Z" fill="#191B3E"/>
<path d="M156.404 215.832H169.618V212.205H160.153V187.129H165.992V183.81H160.153V176.373H169.618V172.808H156.404V215.832Z" fill="#191B3E"/>
<path d="M200.912 172.808L193.537 208.149L186.101 172.808H182.414L191.448 215.832H195.627L204.6 172.808H200.912Z" fill="#191B3E"/>
<path d="M212.519 215.832H225.732V212.205H216.268V187.129H222.106V183.81H216.268V176.373H225.732V172.808H212.519V215.832Z" fill="#191B3E"/>
<path d="M247.381 172.808V186.33L236.073 172.808H232.324V215.832H236.073V178.524L247.381 192.046V215.832H251.13V172.808H247.381Z" fill="#191B3E"/>
<path d="M276.2 176.373V172.808H257.087V176.373H264.769V215.832H268.518V176.373H276.2Z" fill="#191B3E"/>
<path d="M302.42 172.808H298.671V205.445C298.671 210.915 296.028 212.943 292.464 212.943C288.223 212.943 285.396 210.915 285.396 205.445V172.808H281.647V205.875C281.647 212.574 285.335 216.385 292.095 216.385C299.039 216.385 302.42 212.082 302.42 205.506V172.808Z" fill="#191B3E"/>
<path d="M328.078 216.385L331.459 214.664L321.748 192.107L324.514 188.727C328.078 184.363 329.43 182.642 329.43 179.385C329.43 175.267 326.849 172.808 321.38 172.808H311.485V215.832H315.234V199.975L319.044 195.365L328.078 216.385ZM315.234 176.373H321.441C324.145 176.373 325.559 177.357 325.559 179.569C325.559 181.843 324.944 183.073 322.302 186.33L315.234 194.935V176.373Z" fill="#191B3E"/>
<path d="M337.892 215.832H351.105V212.205H341.641V187.129H347.479V183.81H341.641V176.373H351.105V172.808H337.892V215.832Z" fill="#191B3E"/>
<path d="M365.871 191.124C362.614 187.867 360.033 184.978 359.971 180.676C359.91 177.664 361.2 175.759 363.474 175.759C365.195 175.759 366.055 176.558 367.285 179.078L370.849 177.602C369.128 173.669 366.977 171.948 363.474 171.948C359.418 171.948 356.1 175.267 356.161 180.737C356.222 186.576 359.295 190.325 363.413 194.32C367.53 198.315 369.19 200.835 369.19 205.199C369.19 207.78 368.575 212.636 363.413 212.636C360.832 212.636 359.295 211.898 357.206 209.009L353.887 210.853C356.468 214.725 358.927 216.446 363.228 216.446C369.067 216.446 373 211.714 373 204.769C373 198.745 369.927 195.181 365.871 191.124Z" fill="#191B3E"/>
</svg>
