<svg width="422" height="83" viewBox="0 0 422 83" fill="none" xmlns="http://www.w3.org/2000/svg">
<path d="M197.825 36.8661C199.06 36.8661 200.296 37.278 201.119 38.1018C201.942 39.1316 202.354 40.1613 202.354 41.3971C202.354 47.7817 200.09 53.3425 195.561 57.6675C191.032 62.1986 185.68 64.4641 179.299 64.4641C172.917 64.4641 167.359 62.1986 163.036 57.6675C158.507 53.1365 156.243 47.7817 156.243 41.3971C156.243 35.0125 158.507 29.4517 163.036 25.1266C167.565 20.5956 172.917 18.3301 179.299 18.3301C184.857 18.3301 190.003 20.1837 194.12 23.6849C195.149 24.5087 195.561 25.5385 195.767 26.7742C195.767 28.01 195.561 29.2457 194.738 30.0695C193.914 31.0993 192.885 31.5112 191.65 31.7172C190.415 31.9231 189.18 31.5112 188.356 30.6874C185.886 28.6278 182.798 27.3921 179.504 27.3921C175.593 27.3921 172.3 28.8338 169.623 31.5112C166.947 34.1886 165.506 37.4839 165.506 41.3971C165.506 45.3102 166.947 48.6055 169.623 51.2829C172.3 53.9604 175.593 55.402 179.504 55.402C182.592 55.402 185.268 54.5782 187.533 52.7246C190.003 51.077 191.65 48.8115 192.473 46.134H183.21C181.975 46.134 180.74 45.7221 179.916 44.6924C179.093 43.8685 178.681 42.6328 178.681 41.3971C178.681 40.1613 179.093 38.9256 179.916 38.1018C180.945 37.278 181.975 36.8661 183.21 36.8661H197.825ZM232.203 64.67C225.821 64.67 220.263 62.4045 215.94 57.8735C211.412 53.3425 209.147 47.9876 209.147 41.603C209.147 35.2184 211.412 29.6576 215.94 25.3326C220.469 20.8015 225.821 18.536 232.203 18.536C238.584 18.536 244.142 20.8015 248.465 25.3326C252.994 29.8636 255.259 35.2184 255.259 41.603C255.259 47.9876 252.994 53.5484 248.465 57.8735C244.142 62.4045 238.584 64.67 232.203 64.67V64.67ZM232.203 27.5981C228.292 27.5981 224.998 29.0398 222.322 31.7172C219.646 34.3946 218.205 37.6899 218.205 41.603C218.205 45.5162 219.646 48.8115 222.322 51.4889C224.998 54.1663 228.292 55.608 232.203 55.608C236.114 55.608 239.408 54.1663 242.084 51.4889C244.76 48.8115 246.201 45.5162 246.201 41.603C246.201 37.6899 244.76 34.3946 242.084 31.7172C239.408 28.8338 236.114 27.5981 232.203 27.5981ZM262.463 27.5981C261.228 27.5981 259.993 27.1862 259.17 26.3623C258.346 25.3326 257.935 24.3028 257.935 23.0671C257.935 21.8313 258.346 20.5956 259.17 19.7718C260.199 18.9479 261.228 18.536 262.463 18.536H294.165C295.4 18.536 296.635 18.9479 297.459 19.7718C298.282 20.8015 298.694 21.8313 298.694 23.0671C298.694 24.3028 298.282 25.5385 297.459 26.3623C296.429 27.1862 295.4 27.5981 294.165 27.5981H282.843V60.139C282.843 61.3747 282.431 62.4045 281.608 63.4343C280.579 64.4641 279.549 64.876 278.314 64.876C277.079 64.876 276.05 64.4641 275.02 63.4343C273.991 62.6105 273.579 61.3747 273.579 60.139V27.5981H262.463V27.5981ZM333.895 18.3301C337.806 18.3301 341.1 19.7718 343.776 22.4492C346.452 25.1266 347.893 28.4219 347.893 32.335C347.893 35.2184 347.069 37.8958 345.422 40.1613C348.922 43.0447 350.569 46.546 350.569 50.871C350.569 54.7842 349.128 58.0795 346.452 60.7569C343.776 63.4343 340.482 64.876 336.571 64.876H312.692C311.457 64.876 310.427 64.4641 309.398 63.4343C308.369 62.6105 307.957 61.3747 307.957 60.139V23.0671C307.957 21.8313 308.369 20.5956 309.398 19.7718C310.221 18.9479 311.457 18.536 312.692 18.536H333.895V18.3301ZM317.426 36.8661H333.895C335.13 36.8661 336.159 36.4542 337.188 35.4244C338.218 34.6006 338.629 33.3648 338.629 32.1291C338.629 30.8934 338.218 29.8636 337.188 28.8338C336.365 27.804 335.13 27.3921 333.895 27.3921H317.426V36.8661ZM336.571 55.402C337.806 55.402 338.835 54.9901 339.864 53.9604C340.894 53.1365 341.305 51.9008 341.305 50.6651C341.305 49.4293 340.894 48.3996 339.864 47.3698C339.041 46.34 337.806 45.9281 336.571 45.9281H317.426V55.1961H336.571V55.402ZM368.272 64.67C367.037 64.67 365.802 64.2581 364.979 63.4343C364.155 62.4045 363.743 61.3747 363.743 60.139V23.0671C363.743 21.8313 364.155 20.5956 364.979 19.7718C366.008 18.9479 367.037 18.536 368.272 18.536C369.507 18.536 370.742 18.9479 371.566 19.7718C372.389 20.8015 372.801 21.8313 372.801 23.0671V60.139C372.801 61.3747 372.389 62.6105 371.566 63.4343C370.742 64.2581 369.713 64.67 368.272 64.67ZM385.564 27.5981C384.329 27.5981 383.094 27.1862 382.27 26.3623C381.447 25.3326 381.035 24.3028 381.035 23.0671C381.035 21.8313 381.447 20.5956 382.27 19.7718C383.299 18.9479 384.329 18.536 385.564 18.536H417.265C418.5 18.536 419.736 18.9479 420.559 19.7718C421.382 20.8015 421.794 21.8313 421.794 23.0671C421.794 24.3028 421.382 25.5385 420.559 26.3623C419.53 27.1862 418.5 27.5981 417.265 27.5981H405.943V60.139C405.943 61.3747 405.532 62.4045 404.708 63.4343C403.679 64.4641 402.65 64.876 401.415 64.876C400.18 64.876 399.15 64.4641 398.121 63.4343C397.092 62.6105 396.68 61.3747 396.68 60.139V27.5981H385.564V27.5981ZM5.96976 47.3698C9.26341 47.3698 11.9395 44.6924 11.9395 41.3971C11.9395 38.1018 9.26341 35.4244 5.96976 35.4244C2.6761 35.4244 0 38.3077 0 41.603C0 44.8983 2.6761 47.3698 5.96976 47.3698ZM47.1405 71.6725C50.4341 71.6725 53.1102 68.9951 53.1102 65.6998C53.1102 62.4045 50.4341 59.7271 47.1405 59.7271C43.8468 59.7271 41.1707 62.4045 41.1707 65.6998C41.3766 68.9951 44.0527 71.6725 47.1405 71.6725Z" fill="#191B3E"/>
<path d="M132.776 37.072C131.335 35.6303 129.894 35.6303 128.865 35.6303H64.8441C67.5202 22.0372 79.6656 11.9454 93.8695 11.9454C101.692 11.9454 109.103 15.0347 114.661 20.5955C116.925 22.861 120.63 23.067 122.895 20.8015C125.365 18.536 125.365 14.6228 123.101 12.1514C115.484 4.32506 104.986 0 93.8695 0C83.9885 0 74.9309 3.50124 67.9319 9.26799C64.6383 11.7395 62.168 11.9454 57.0217 11.9454H47.1407C43.847 11.9454 41.1709 14.6228 41.1709 18.1241C41.1709 21.4194 44.0529 23.8908 47.3465 23.8908H62.9914L57.0217 24.7146C56.1983 24.9206 55.5807 25.3325 55.3748 25.9504C54.5514 28.0099 53.9339 30.2754 53.3163 32.5409C52.6987 34.6005 49.8168 35.4243 45.4939 35.4243H23.8792C20.5856 35.4243 17.7036 37.8958 17.7036 41.1911C17.7036 44.4864 20.3797 47.3697 23.6734 47.3697H60.9329L54.7573 48.3995C53.728 48.6055 53.1104 49.6352 53.3163 50.665C57.4334 69.201 74.1075 83 93.8695 83C116.102 83 134.217 65.4938 135.246 43.4566C135.452 41.1911 134.629 38.7196 132.776 37.072V37.072ZM93.8695 71.2605C79.4597 71.2605 67.5202 60.9628 64.8441 47.5757H122.895C120.219 60.9628 108.279 71.2605 93.8695 71.2605Z" fill="#191B3E"/>
</svg>
