<svg width="430" height="262" viewBox="0 0 430 262" fill="none" xmlns="http://www.w3.org/2000/svg">
<path d="M121.015 153.293V181.13H139.219V187.415H114.093V153.293H121.015Z" fill="#191B3E"/>
<path d="M151.655 153.165H144.86V187.415H151.655V153.165Z" fill="#191B3E"/>
<path d="M161.654 182.541C158.321 179.334 156.782 175.229 156.782 170.226C156.782 165.48 158.449 161.375 161.654 158.04C164.987 154.704 168.961 153.165 173.832 153.165C178.704 153.165 182.934 154.704 186.395 157.783L181.78 162.786C179.473 160.99 176.781 160.092 173.832 160.092C170.755 160.092 168.32 161.118 166.397 162.914C164.474 164.838 163.577 167.276 163.577 170.226C163.577 173.433 164.602 175.87 166.397 177.795C168.32 179.719 170.755 180.617 173.832 180.617C176.268 180.617 178.191 180.104 179.473 179.206V173.305H174.858V166.891H186.267V182.926C182.806 186.004 178.575 187.544 173.704 187.544C168.961 187.415 164.858 185.876 161.654 182.541Z" fill="#191B3E"/>
<path d="M193.317 187.415V153.165H200.112V166.891H216.008V153.165H222.93V187.415H216.008V173.305H200.112V187.415H193.317Z" fill="#191B3E"/>
<path d="M258.184 153.293V159.579H246.775V187.415H239.981V159.579H228.571V153.293H258.184Z" fill="#191B3E"/>
<path d="M263.312 187.415V153.165H270.106V166.891H286.13V153.165H292.925V187.415H286.13V173.305H270.106V187.415H263.312Z" fill="#191B3E"/>
<path d="M303.437 182.541C300.104 179.206 298.565 175.229 298.565 170.354C298.565 165.48 300.232 161.375 303.437 158.168C306.77 154.833 310.744 153.293 315.615 153.293C320.487 153.293 324.589 154.961 327.794 158.168C331.127 161.375 332.665 165.48 332.665 170.354C332.665 175.229 330.999 179.334 327.794 182.541C324.461 185.876 320.487 187.415 315.615 187.415C310.872 187.415 306.77 185.876 303.437 182.541ZM315.743 181.13C318.82 181.13 321.256 180.104 323.179 178.051C325.102 175.999 325.999 173.433 325.999 170.354C325.999 167.276 325.102 164.71 323.179 162.658C321.256 160.605 318.82 159.579 315.743 159.579C312.667 159.579 310.231 160.605 308.308 162.658C306.385 164.71 305.488 167.276 305.488 170.354C305.488 173.433 306.385 175.999 308.308 178.051C310.231 180.104 312.667 181.13 315.743 181.13Z" fill="#191B3E"/>
<path d="M344.203 153.293V173.176C344.203 175.742 344.972 177.666 346.511 178.821C348.049 180.103 349.972 180.617 352.151 180.617C354.459 180.617 356.382 179.975 357.792 178.821C359.33 177.666 360.099 175.742 360.099 173.176V153.293H366.894V174.972C366.894 178.436 365.483 181.386 362.663 183.824C359.843 186.261 356.253 187.415 352.023 187.415C347.793 187.415 344.203 186.261 341.383 183.824C338.562 181.386 337.152 178.436 337.152 174.972V153.293H344.203Z" fill="#191B3E"/>
<path d="M392.917 154.319C394.712 155.089 396.25 156.244 397.788 157.783L393.173 162.401C391.635 160.605 389.584 159.707 386.764 159.707C384.071 159.707 382.277 160.349 381.508 161.631C380.738 162.914 380.738 164.069 381.508 164.967C382.277 165.865 384.071 166.506 386.764 167.019C389.712 167.276 392.276 168.302 394.583 169.841C396.891 171.381 398.173 173.946 398.173 177.538C398.173 180.232 396.891 182.669 394.455 184.593C391.891 186.517 388.943 187.544 385.61 187.544C382.405 187.544 379.713 187.031 377.662 186.133C375.482 185.235 373.688 183.952 372.149 182.541L376.764 177.923C378.303 179.719 380.867 180.873 384.584 181.13C387.661 181.13 389.584 180.488 390.225 179.206C390.994 177.923 390.994 176.64 390.225 175.357C389.456 174.074 387.533 173.305 384.584 172.92C381.892 172.663 379.328 171.765 377.021 170.354C374.713 168.943 373.56 166.634 373.56 163.299C373.56 160.22 374.841 157.783 377.405 155.987C379.969 154.191 382.661 153.293 385.353 153.293C388.686 153.293 391.25 153.55 392.917 154.319Z" fill="#191B3E"/>
<path d="M404.326 187.415V153.293L429.452 153.165V159.579H411.12V166.891H424.837V173.305H411.12V181.13H429.452V187.415H404.326Z" fill="#191B3E"/>
<path d="M117.683 206.4L125.375 226.412L133.323 206.4H139.092L128.195 233.724H122.811L111.786 206.4H117.683Z" fill="#191B3E"/>
<path d="M143.579 233.724V206.529L163.578 206.4V211.532H148.963V217.432H159.988V222.435H148.963V228.593H163.578V233.724H143.579Z" fill="#191B3E"/>
<path d="M169.089 233.724V206.4H170.884L187.934 223.59V206.4H193.446V233.724H191.395L174.473 216.791V233.724H169.089Z" fill="#191B3E"/>
<path d="M221.265 206.4V211.532H212.291V233.724H206.779V211.532H197.677V206.4H221.265Z" fill="#191B3E"/>
<path d="M230.366 206.4V222.179C230.366 224.231 231.007 225.771 232.161 226.668C233.314 227.695 234.853 228.08 236.647 228.08C238.442 228.08 239.981 227.566 241.134 226.668C242.288 225.642 242.929 224.231 242.929 222.179V206.4H248.441V223.718C248.441 226.54 247.288 228.849 245.108 230.773C242.929 232.698 240.109 233.724 236.647 233.724C233.314 233.724 230.494 232.698 228.187 230.773C226.007 228.849 224.854 226.412 224.854 223.718V206.4H230.366Z" fill="#191B3E"/>
<path d="M270.876 221.794L277.67 233.724H271.389L264.851 222.435H259.851V233.724H254.339V206.4H266.261C272.671 206.4 275.747 208.966 275.747 214.225C275.875 218.202 274.209 220.768 270.876 221.794ZM259.979 217.432H267.671C269.85 217.432 271.004 216.406 271.004 214.482C271.004 212.686 269.85 211.788 267.671 211.66H259.979V217.432Z" fill="#191B3E"/>
<path d="M280.489 233.724V206.529L300.488 206.4V211.532H285.873V217.432H296.77V222.435H285.873V228.593H300.488V233.724H280.489Z" fill="#191B3E"/>
<path d="M320.743 207.427C322.153 208.068 323.435 208.966 324.589 210.121L320.999 213.713C319.846 212.302 318.051 211.532 315.872 211.532C313.692 211.532 312.282 212.045 311.641 213.071C311 214.097 311 214.995 311.641 215.765C312.282 216.535 313.692 217.048 315.872 217.433C318.179 217.689 320.23 218.459 322.153 219.742C324.076 221.024 324.973 223.077 324.973 225.899C324.973 228.08 323.948 230.004 322.025 231.543C319.974 233.083 317.666 233.852 314.974 233.852C312.41 233.852 310.359 233.468 308.693 232.698C307.026 231.928 305.488 231.03 304.334 229.747L307.923 226.156C309.077 227.567 311.257 228.465 314.077 228.721C316.512 228.721 318.051 228.208 318.564 227.182C319.205 226.156 319.205 225.129 318.564 224.103C317.923 223.077 316.512 222.436 314.077 222.179C311.897 221.922 309.846 221.281 308.052 220.127C306.257 218.972 305.36 217.176 305.36 214.482C305.36 212.045 306.385 210.121 308.436 208.71C310.487 207.299 312.667 206.529 314.846 206.529C317.41 206.401 319.333 206.786 320.743 207.427Z" fill="#191B3E"/>
<path d="M83.3266 261.047C80.8909 246.424 78.5834 231.8 76.5323 217.048C74.4812 202.296 72.5583 187.672 71.0199 172.92C69.4816 158.168 68.1996 143.416 67.5587 128.535L66.2767 84.0226V83.6378L66.4049 83.3813C67.6869 81.5854 68.9688 79.9177 70.379 78.2501C71.1481 77.4804 71.7891 76.5825 72.6865 75.8128C72.9428 75.5562 73.071 75.428 73.3274 75.2997C73.5838 75.1714 73.3274 75.2997 73.3274 75.2997C73.3274 75.2997 73.3274 75.2997 73.4556 75.1714C73.5838 74.9148 73.712 74.4017 73.712 73.8886C73.9684 71.9644 73.9684 69.7837 73.8402 67.7312C73.8402 65.6788 73.712 63.498 73.5838 61.4456L72.9428 48.746C72.8147 46.5652 72.6865 44.5128 72.8147 42.332C72.8147 41.8189 72.8147 41.3058 72.8147 40.6644V40.2796C72.8147 40.1513 72.8147 40.1513 72.8147 40.023C72.8147 39.8947 72.8147 39.7664 72.6865 39.5099C72.4301 38.7402 71.9173 37.8423 71.2763 37.0726C68.9688 33.7373 65.8921 30.7869 62.9437 27.8365C59.9952 24.8861 56.9185 22.064 53.7136 19.1135C47.6885 13.4693 41.2787 7.95329 34.7408 2.56558L36.4073 2.4373C31.4077 7.56845 26.2799 12.6996 21.0239 17.7025C18.4601 20.1398 15.768 22.7054 13.0759 25.0144C10.3838 27.4517 7.69169 29.7607 4.48682 31.8132C4.10223 32.0697 3.71765 32.3263 3.20487 32.5828C3.07668 32.5828 2.94848 32.7111 2.94848 32.7111C3.07668 32.7111 3.07668 32.7111 3.07668 32.7111C3.07668 32.7111 2.94848 32.8394 2.94848 32.9677C2.69209 33.4808 2.5639 34.3787 2.5639 35.2767C2.4357 36.9443 2.4357 38.7402 2.4357 40.5361C2.4357 44.1279 2.69209 47.7197 2.94848 51.3115L3.71765 62.087C3.84584 63.8829 3.97404 65.6788 3.97404 67.4747C3.97404 68.3726 3.97404 69.2706 3.97404 70.2968C3.97404 71.1948 3.97404 72.0927 3.71765 73.2472L3.46126 72.221L11.6657 83.3813L10.2556 82.9964L12.1785 82.4833L14.1014 82.0985C15.3834 81.8419 16.5371 81.5854 17.8191 81.3288C20.2548 80.8157 22.8187 80.3026 25.2544 79.9177C30.254 79.0198 35.1254 78.1218 40.125 77.3521C49.996 75.6845 59.9952 74.1452 69.8662 72.4776C89.7364 69.3989 109.607 66.4484 129.477 63.6263C149.347 60.8042 169.345 57.982 189.216 55.4165L219.085 51.5681C229.084 50.4136 239.083 49.1308 249.083 48.3611C239.083 49.2591 229.084 50.7984 219.213 52.0812L189.344 56.4427L129.733 65.4222C109.863 68.5009 89.9928 71.5796 70.1226 74.7866C60.2516 76.3259 50.2524 77.9935 40.3814 79.6612C35.3818 80.5591 30.5104 81.3288 25.5108 82.355C23.0751 82.8681 20.6394 83.253 18.0755 83.7661C16.7935 84.0227 15.6398 84.2792 14.3578 84.5358L12.8195 84.664L11.1529 85.1772L10.2556 85.4337L9.74281 84.7923L1.53834 73.6321L1.15375 73.1189L1.28195 72.6058C1.53834 71.1948 1.53834 69.2706 1.53834 67.4747C1.53834 65.6788 1.41014 63.8829 1.28195 62.087L0.512779 51.3115C0.25639 47.7197 0 44.1279 0 40.4078C0 38.6119 0 36.816 0.128195 34.8918C0.25639 33.9939 0.384584 32.9677 0.769169 31.9414C0.897364 31.6849 1.02556 31.3 1.28195 31.0435C1.41014 30.9152 1.66653 30.6586 1.92292 30.5304L2.17931 30.4021C2.5639 30.2738 2.94848 30.0173 3.20487 29.7607C6.02516 27.8365 8.84544 25.5275 11.5375 23.2185C14.2296 20.9095 16.7935 18.4722 19.4856 15.9066C24.7416 10.9037 29.7412 5.90083 34.869 0.769673L35.51 0L36.4073 0.769673C42.9453 6.15738 49.355 11.6734 55.5084 17.4459C58.585 20.2681 61.6617 23.2185 64.7384 26.1689C67.6869 29.2476 70.6353 32.198 73.1992 35.7898C73.8402 36.6878 74.4812 37.5857 74.8658 38.8685C74.994 39.125 74.994 39.5099 75.1222 39.8947C75.1222 40.023 75.1222 40.4078 75.1222 40.5361V40.921C75.1222 41.4341 75.1222 41.9472 75.1222 42.4603C75.1222 44.5128 75.2504 46.5652 75.2504 48.746L75.8913 61.4456C76.0195 63.498 76.0195 65.6788 76.1477 67.8595C76.1477 70.0403 76.1477 72.0927 75.8913 74.4017C75.7631 74.9148 75.7631 75.5562 75.5067 76.1976C75.3785 76.3259 75.3785 76.5825 75.2504 76.7108C75.1222 76.839 74.7376 77.2239 74.7376 77.2239C74.6094 77.3521 74.353 77.4804 74.2248 77.6087C73.4556 78.2501 72.8147 79.0198 72.1737 79.7894C70.7635 81.3288 69.4816 82.9964 68.3278 84.664L68.456 84.0226L68.8406 106.343L69.097 117.503C69.097 121.224 69.097 124.944 69.3534 128.664C69.8662 143.416 71.0199 158.296 72.4301 173.048C73.8402 187.8 75.5067 202.552 77.3015 217.304C78.968 231.672 81.0191 246.424 83.3266 261.047Z" fill="#191B3E"/>
<path d="M250.365 112.757C230.495 111.474 210.625 110.576 190.754 109.55C170.884 108.524 151.014 107.626 131.144 106.856C111.274 106.087 91.4034 105.317 71.5332 104.675C51.663 104.162 31.7928 103.777 11.9226 103.906L13.2045 102.495C14.3583 115.066 14.9992 127.509 15.2556 140.08C15.512 152.652 15.3838 165.223 14.7429 177.794C14.1019 190.366 13.0763 202.937 11.2816 215.38C10.3842 221.666 9.23047 227.823 8.07672 233.981C6.79477 240.138 5.25643 246.295 3.46171 252.324L2.05156 251.683C3.20532 249.887 4.48726 248.476 5.76921 246.937L7.82033 244.756L9.99964 242.703C11.4098 241.292 12.9481 240.01 14.4865 238.727C16.0248 237.444 17.5631 236.161 19.1015 235.007C20.6398 233.852 22.3063 232.569 23.8447 231.543L28.7161 228.208C32.0492 226.156 35.3822 223.975 38.8435 222.051C42.3047 219.998 45.766 218.33 49.3554 216.535C52.8167 214.739 56.5344 213.199 60.1238 211.403C63.7133 209.864 67.4309 208.325 71.0204 206.785L82.0451 202.552L71.0204 207.042L60.252 211.917C56.6626 213.712 53.0731 215.38 49.6118 217.176C46.1506 219.1 42.6893 220.896 39.2281 222.949C35.7668 224.873 32.5619 227.053 29.2289 229.234L24.3575 232.569C22.6909 233.724 21.2808 235.007 19.6143 236.161C18.0759 237.316 16.5376 238.599 14.9992 239.881C13.5891 241.164 12.0508 242.447 10.6406 243.858L8.5895 245.91L6.66658 248.091C5.38463 249.502 4.10268 251.042 3.07712 252.581L0.256836 256.942L1.66698 251.94C3.33351 245.91 4.74365 239.881 6.0256 233.724C7.17936 227.567 8.20491 221.409 9.10228 215.252C10.7688 202.809 11.7944 190.366 12.3071 177.923C12.8199 165.48 12.9481 152.908 12.6917 140.465C12.3071 128.022 11.6662 115.451 10.5124 103.008L10.3842 101.597H11.7944C31.7928 101.34 51.663 101.982 71.5332 102.495C91.4034 103.136 111.274 103.906 131.272 104.932C151.142 105.958 171.012 107.113 190.883 108.396L220.624 110.448C230.495 111.089 240.494 111.731 250.365 112.757Z" fill="#191B3E"/>
<path d="M11.0254 179.206C15.1276 174.716 19.6144 170.611 24.2295 166.763C28.8445 162.914 33.7159 159.322 38.8437 155.987C43.9715 152.78 49.2274 149.702 54.7398 147.136C60.2522 144.699 66.021 142.646 72.0461 141.492C66.4055 143.544 61.0214 146.11 55.6372 148.932C54.3552 149.702 53.0733 150.343 51.6631 151.113C50.3812 151.754 49.0992 152.652 47.8173 153.422C45.2534 154.961 42.6895 156.5 40.2538 158.168C35.2542 161.375 30.3828 164.838 25.5114 168.43C20.64 171.894 15.7686 175.486 11.0254 179.206Z" fill="#191B3E"/>
</svg>
