<svg width="140" height="177" viewBox="0 0 140 177" fill="none" xmlns="http://www.w3.org/2000/svg">
<path d="M2.50101 1.67425H23.1829C29.7157 1.67425 34.6564 2.18309 38.0049 3.20077C41.3862 4.21844 44.111 6.28663 46.1791 9.40532C48.2473 12.4912 49.2814 17.4811 49.2814 24.3751C49.2814 29.0367 48.5428 32.2867 47.0655 34.1251C45.6211 35.9635 42.7486 37.3751 38.4481 38.3599C43.241 39.4433 46.491 41.2488 48.1981 43.7766C49.9052 46.2716 50.7587 50.1125 50.7587 55.2994V62.6858C50.7587 68.0696 50.135 72.0583 48.8875 74.6517C47.6728 77.2451 45.7195 79.0179 43.0276 79.9699C40.3357 80.9219 34.8205 81.3979 26.4821 81.3979H2.50101V1.67425ZM23.2321 15.3144V33.0417C24.1185 33.0089 24.8079 32.9925 25.3003 32.9925C27.3357 32.9925 28.6324 32.5001 29.1905 31.5152C29.7486 30.4975 30.0276 27.6251 30.0276 22.8978C30.0276 20.4028 29.7978 18.6629 29.3382 17.6781C28.8786 16.6604 28.2713 16.0202 27.5162 15.7576C26.794 15.495 25.366 15.3473 23.2321 15.3144ZM23.2321 45.4509V67.7577C26.1538 67.6592 28.0086 67.1997 28.7965 66.3789C29.6172 65.5582 30.0276 63.5393 30.0276 60.3221V52.8865C30.0276 49.4723 29.6665 47.4042 28.9443 46.6819C28.222 45.9597 26.318 45.5494 23.2321 45.4509Z" fill="#191B3E"/>
<path d="M80.9916 1.67425V81.3979H60.2605V1.67425H80.9916Z" fill="#191B3E"/>
<path d="M138.899 31.0228H118.168V23.7841C118.168 19.221 117.971 16.3649 117.577 15.2159C117.183 14.067 116.247 13.4925 114.77 13.4925C113.49 13.4925 112.62 13.9849 112.16 14.9697C111.701 15.9546 111.471 18.4824 111.471 22.5531V60.8145C111.471 64.3928 111.701 66.7565 112.16 67.9055C112.62 69.0216 113.539 69.5797 114.918 69.5797C116.428 69.5797 117.446 68.9396 117.971 67.6592C118.529 66.3789 118.808 63.884 118.808 60.1744V50.7198H114.622V38.6062H138.899V81.3979H125.85L123.929 75.6858C122.518 78.1479 120.728 80.0027 118.562 81.2502C116.428 82.4648 113.9 83.0722 110.978 83.0722C107.499 83.0722 104.232 82.235 101.179 80.5608C98.1589 78.8537 95.8609 76.7527 94.2852 74.2578C92.7094 71.7628 91.7246 69.1529 91.3306 66.4282C90.9367 63.6706 90.7397 59.5506 90.7397 54.0683V30.3826C90.7397 22.7665 91.1501 17.2349 91.9708 13.7879C92.7915 10.3409 95.1387 7.18941 99.0124 4.33334C102.919 1.44445 107.958 0 114.13 0C120.203 0 125.242 1.24748 129.247 3.74243C133.252 6.23739 135.862 9.20835 137.077 12.6553C138.292 16.0695 138.899 21.043 138.899 27.5758V31.0228Z" fill="#191B3E"/>
<path d="M0 87.2463H5.80163C9.66939 87.2463 12.2847 87.3955 13.6475 87.6941C15.0232 87.9926 16.1394 88.7583 16.9961 89.9913C17.8657 91.2114 18.3005 93.1647 18.3005 95.8514C18.3005 98.3044 17.9955 99.9528 17.3854 100.796C16.7754 101.64 15.5749 102.146 13.7838 102.315C15.4061 102.717 16.4964 103.256 17.0545 103.931C17.6126 104.606 17.9565 105.229 18.0863 105.8C18.2291 106.358 18.3005 107.909 18.3005 110.453V118.766H10.6882V108.292C10.6882 106.605 10.552 105.56 10.2794 105.157C10.0198 104.755 9.32545 104.554 8.19627 104.554V118.766H0V87.2463ZM8.19627 92.6391V99.6478C9.11778 99.6478 9.76025 99.5245 10.1237 99.2779C10.5001 99.0183 10.6882 98.1941 10.6882 96.8054V95.0726C10.6882 94.0733 10.5065 93.4178 10.1431 93.1063C9.79269 92.7948 9.14374 92.6391 8.19627 92.6391Z" fill="#191B3E"/>
<path d="M40.9222 87.2463V108.311C40.9222 110.699 40.8443 112.38 40.6885 113.354C40.5328 114.314 40.072 115.307 39.3063 116.332C38.5405 117.345 37.5281 118.117 36.2692 118.649C35.0232 119.168 33.5501 119.428 31.8498 119.428C29.9678 119.428 28.3065 119.116 26.8659 118.493C25.4252 117.87 24.3479 117.059 23.6341 116.06C22.9202 115.06 22.4984 114.009 22.3686 112.906C22.2388 111.79 22.1739 109.453 22.1739 105.897V87.2463H30.3702V110.881C30.3702 112.257 30.4416 113.139 30.5843 113.529C30.7401 113.905 31.0451 114.093 31.4994 114.093C32.0185 114.093 32.3495 113.886 32.4923 113.47C32.648 113.042 32.7259 112.043 32.7259 110.472V87.2463H40.9222Z" fill="#191B3E"/>
<path d="M62.2589 96.7859H54.6467V94.4497C54.6467 93.3594 54.5494 92.665 54.3547 92.3665C54.16 92.068 53.8355 91.9187 53.3813 91.9187C52.8881 91.9187 52.5117 92.1199 52.2521 92.5223C52.0055 92.9246 51.8822 93.5346 51.8822 94.3523C51.8822 95.4036 52.025 96.1953 52.3105 96.7275C52.5831 97.2596 53.3553 97.9021 54.6273 98.6549C58.2744 100.822 60.5717 102.601 61.5191 103.989C62.4666 105.378 62.9403 107.617 62.9403 110.706C62.9403 112.951 62.6743 114.606 62.1421 115.67C61.623 116.735 60.6106 117.63 59.105 118.357C57.5995 119.071 55.8473 119.428 53.8485 119.428C51.6551 119.428 49.7796 119.012 48.2221 118.182C46.6776 117.351 45.6652 116.293 45.185 115.008C44.7048 113.724 44.4647 111.9 44.4647 109.538V107.474H52.0769V111.309C52.0769 112.491 52.1807 113.25 52.3884 113.587C52.609 113.925 52.9919 114.093 53.537 114.093C54.0821 114.093 54.4845 113.879 54.7441 113.451C55.0166 113.023 55.1529 112.387 55.1529 111.543C55.1529 109.687 54.8998 108.474 54.3936 107.902C53.8745 107.331 52.596 106.377 50.5583 105.041C48.5206 103.691 47.1708 102.711 46.5089 102.101C45.8469 101.491 45.2953 100.647 44.854 99.5699C44.4257 98.4926 44.2116 97.1169 44.2116 95.4426C44.2116 93.0285 44.5166 91.2633 45.1266 90.1471C45.7496 89.0309 46.749 88.1613 48.1248 87.5383C49.5005 86.9023 51.1619 86.5844 53.1087 86.5844C55.2373 86.5844 57.0479 86.9283 58.5404 87.6162C60.046 88.3041 61.0389 89.1737 61.5191 90.225C62.0123 91.2633 62.2589 93.0349 62.2589 95.5399V96.7859Z" fill="#191B3E"/>
<path d="M83.6931 96.7859H76.0808V94.4497C76.0808 93.3594 75.9835 92.665 75.7888 92.3665C75.5941 92.068 75.2697 91.9187 74.8154 91.9187C74.3222 91.9187 73.9458 92.1199 73.6862 92.5223C73.4396 92.9246 73.3163 93.5346 73.3163 94.3523C73.3163 95.4036 73.4591 96.1953 73.7446 96.7275C74.0172 97.2596 74.7894 97.9021 76.0614 98.6549C79.7085 100.822 82.0058 102.601 82.9533 103.989C83.9007 105.378 84.3745 107.617 84.3745 110.706C84.3745 112.951 84.1084 114.606 83.5762 115.67C83.0571 116.735 82.0447 117.63 80.5392 118.357C79.0336 119.071 77.2814 119.428 75.2826 119.428C73.0892 119.428 71.2137 119.012 69.6562 118.182C68.1117 117.351 67.0993 116.293 66.6191 115.008C66.1389 113.724 65.8988 111.9 65.8988 109.538V107.474H73.511V111.309C73.511 112.491 73.6148 113.25 73.8225 113.587C74.0431 113.925 74.426 114.093 74.9711 114.093C75.5163 114.093 75.9186 113.879 76.1782 113.451C76.4508 113.023 76.587 112.387 76.587 111.543C76.587 109.687 76.3339 108.474 75.8278 107.902C75.3086 107.331 74.0302 106.377 71.9924 105.041C69.9547 103.691 68.6049 102.711 67.943 102.101C67.2811 101.491 66.7294 100.647 66.2882 99.5699C65.8598 98.4926 65.6457 97.1169 65.6457 95.4426C65.6457 93.0285 65.9507 91.2633 66.5607 90.1471C67.1837 89.0309 68.1831 88.1613 69.5589 87.5383C70.9347 86.9023 72.596 86.5844 74.5428 86.5844C76.6714 86.5844 78.482 86.9283 79.9746 87.6162C81.4801 88.3041 82.473 89.1737 82.9533 90.225C83.4465 91.2633 83.6931 93.0349 83.6931 95.5399V96.7859Z" fill="#191B3E"/>
<path d="M95.9575 87.2463V118.766H87.7612V87.2463H95.9575Z" fill="#191B3E"/>
<path d="M114.199 87.2463L118.891 118.766H110.5L110.091 113.101H107.151L106.664 118.766H98.1761L102.342 87.2463H114.199ZM109.857 107.513C109.442 103.944 109.027 99.5374 108.611 94.2939C107.781 100.316 107.261 104.723 107.054 107.513H109.857Z" fill="#191B3E"/>
<path d="M139.39 87.2463V118.766H132.206L127.943 104.437V118.766H121.09V87.2463H127.943L132.537 101.439V87.2463H139.39Z" fill="#191B3E"/>
<path d="M1.04068 123.988H14.4209C18.6474 123.988 21.8437 124.317 24.0101 124.975C26.1976 125.634 27.9604 126.972 29.2984 128.989C30.6365 130.986 31.3055 134.214 31.3055 138.674C31.3055 141.69 30.8276 143.793 29.8719 144.982C28.9374 146.171 27.079 147.084 24.2968 147.722C27.3976 148.423 29.5002 149.591 30.6046 151.226C31.709 152.84 32.2612 155.325 32.2612 158.681V163.459C32.2612 166.942 31.8577 169.523 31.0506 171.201C30.2648 172.879 29.0011 174.025 27.2595 174.641C25.518 175.257 21.9499 175.565 16.5554 175.565H1.04068V123.988ZM14.4528 132.812V144.281C15.0262 144.26 15.4722 144.249 15.7908 144.249C17.1076 144.249 17.9465 143.931 18.3075 143.293C18.6686 142.635 18.8491 140.777 18.8491 137.718C18.8491 136.104 18.7004 134.979 18.4031 134.341C18.1058 133.683 17.7129 133.269 17.2244 133.099C16.7571 132.929 15.8333 132.833 14.4528 132.812ZM14.4528 152.309V166.741C16.343 166.677 17.543 166.38 18.0527 165.849C18.5836 165.318 18.8491 164.012 18.8491 161.93V157.12C18.8491 154.911 18.6155 153.573 18.1483 153.106C17.681 152.638 16.4492 152.373 14.4528 152.309Z" fill="#191B3E"/>
<path d="M69.0555 154.189C69.0555 159.371 68.9281 163.045 68.6732 165.211C68.4396 167.357 67.675 169.321 66.3795 171.105C65.1052 172.889 63.3742 174.259 61.1867 175.215C58.9991 176.171 56.4505 176.648 53.5408 176.648C50.7798 176.648 48.2949 176.202 46.0861 175.31C43.8986 174.397 42.1358 173.038 40.7978 171.233C39.4598 169.427 38.6633 167.463 38.4084 165.339C38.1536 163.215 38.0262 159.498 38.0262 154.189V145.364C38.0262 140.182 38.143 136.518 38.3766 134.373C38.6315 132.207 39.396 130.232 40.6703 128.448C41.9659 126.664 43.7074 125.294 45.895 124.338C48.0826 123.382 50.6312 122.905 53.5408 122.905C56.3018 122.905 58.7761 123.361 60.9637 124.274C63.1725 125.166 64.9459 126.515 66.2839 128.32C67.6219 130.126 68.4184 132.09 68.6732 134.214C68.9281 136.338 69.0555 140.055 69.0555 145.364V154.189ZM55.6434 137.24C55.6434 134.841 55.5054 133.311 55.2293 132.653C54.9744 131.973 54.4329 131.634 53.6046 131.634C52.9037 131.634 52.3621 131.91 51.9798 132.462C51.6188 132.993 51.4382 134.586 51.4382 137.24V161.325C51.4382 164.319 51.555 166.167 51.7887 166.868C52.0435 167.569 52.617 167.919 53.509 167.919C54.4222 167.919 55.0063 167.516 55.2612 166.709C55.516 165.902 55.6434 163.98 55.6434 160.943V137.24Z" fill="#191B3E"/>
<path d="M103.811 139.598H91.3546V135.775C91.3546 133.991 91.1953 132.855 90.8767 132.366C90.5582 131.878 90.0272 131.634 89.2839 131.634C88.4768 131.634 87.8609 131.963 87.4361 132.621C87.0326 133.279 86.8308 134.278 86.8308 135.616C86.8308 137.336 87.0644 138.632 87.5317 139.502C87.9777 140.373 89.2414 141.424 91.3228 142.656C97.2908 146.203 101.05 149.113 102.6 151.385C104.151 153.658 104.926 157.321 104.926 162.376C104.926 166.05 104.491 168.758 103.62 170.5C102.77 172.241 101.114 173.707 98.65 174.896C96.1864 176.064 93.3192 176.648 90.0484 176.648C86.4592 176.648 83.3902 175.969 80.8416 174.609C78.3142 173.25 76.6576 171.519 75.8718 169.417C75.086 167.314 74.6931 164.33 74.6931 160.465V157.088H87.1494V163.364C87.1494 165.296 87.3193 166.539 87.6591 167.091C88.0202 167.643 88.6467 167.919 89.5387 167.919C90.4307 167.919 91.0891 167.569 91.5139 166.868C91.9599 166.167 92.1829 165.127 92.1829 163.746C92.1829 160.709 91.7688 158.723 90.9405 157.789C90.0909 156.854 87.9989 155.293 84.6645 153.106C81.3301 150.897 79.1213 149.293 78.0381 148.295C76.9549 147.297 76.0523 145.916 75.3302 144.154C74.6293 142.391 74.2789 140.14 74.2789 137.4C74.2789 133.449 74.778 130.561 75.7762 128.734C76.7957 126.908 78.431 125.485 80.6823 124.466C82.9336 123.425 85.6521 122.905 88.8379 122.905C92.321 122.905 95.2837 123.467 97.7262 124.593C100.19 125.719 101.815 127.142 102.6 128.862C103.407 130.561 103.811 133.46 103.811 137.559V139.598Z" fill="#191B3E"/>
<path d="M138.885 139.598H126.429V135.775C126.429 133.991 126.269 132.855 125.951 132.366C125.632 131.878 125.101 131.634 124.358 131.634C123.551 131.634 122.935 131.963 122.51 132.621C122.107 133.279 121.905 134.278 121.905 135.616C121.905 137.336 122.138 138.632 122.606 139.502C123.052 140.373 124.315 141.424 126.397 142.656C132.365 146.203 136.124 149.113 137.674 151.385C139.225 153.658 140 157.321 140 162.376C140 166.05 139.565 168.758 138.694 170.5C137.844 172.241 136.188 173.707 133.724 174.896C131.26 176.064 128.393 176.648 125.122 176.648C121.533 176.648 118.464 175.969 115.916 174.609C113.388 173.25 111.732 171.519 110.946 169.417C110.16 167.314 109.767 164.33 109.767 160.465V157.088H122.223V163.364C122.223 165.296 122.393 166.539 122.733 167.091C123.094 167.643 123.721 167.919 124.613 167.919C125.505 167.919 126.163 167.569 126.588 166.868C127.034 166.167 127.257 165.127 127.257 163.746C127.257 160.709 126.843 158.723 126.014 157.789C125.165 156.854 123.073 155.293 119.739 153.106C116.404 150.897 114.195 149.293 113.112 148.295C112.029 147.297 111.126 145.916 110.404 144.154C109.703 142.391 109.353 140.14 109.353 137.4C109.353 133.449 109.852 130.561 110.85 128.734C111.87 126.908 113.505 125.485 115.756 124.466C118.008 123.425 120.726 122.905 123.912 122.905C127.395 122.905 130.358 123.467 132.8 124.593C135.264 125.719 136.889 127.142 137.674 128.862C138.481 130.561 138.885 133.46 138.885 137.559V139.598Z" fill="#191B3E"/>
</svg>
