<svg width="406" height="164" viewBox="0 0 406 164" fill="none" xmlns="http://www.w3.org/2000/svg">
<path d="M119.202 76.9844C116.459 76.9844 114.235 79.2081 114.235 81.9512C114.235 84.6942 116.459 86.9179 119.202 86.9179C121.945 86.9179 124.168 84.6942 124.168 81.9512C124.168 79.2081 121.945 76.9844 119.202 76.9844Z" fill="#191B3E"/>
<path d="M72.0177 22.3503L124.168 52.1508V74.5011C124.168 74.5011 121.37 72.0177 119.202 72.0177C117.033 72.0177 114.235 74.5011 114.235 74.5011V57.9164L72.0177 33.5255L29.8004 57.9641V106.058L72.0177 130.377L114.235 106.058V89.4013C115.477 90.2291 117.033 91.8847 119.202 91.8847C121.37 91.8847 122.927 90.2291 124.168 89.4013V111.752L72.0177 141.552L19.867 111.752V52.1508L72.0177 22.3503Z" fill="#191B3E"/>
<path d="M144.035 81.9512C144.035 79.2081 141.812 76.9845 139.069 76.9844C136.334 76.9844 134.113 79.2004 134.102 81.9302C134.102 81.9439 134.102 81.9577 134.102 81.9715C134.113 84.7089 136.331 86.9179 139.069 86.9179C141.812 86.9179 144.035 84.6942 144.035 81.9512Z" fill="#191B3E"/>
<path d="M144.035 40.9756L72.0177 0L0 40.9756V122.927L72.0177 163.902L144.035 122.927V89.4013C144.035 89.4013 141.237 91.8847 139.069 91.8847C136.9 91.8847 134.102 89.4013 134.102 89.4013V117.144L72.0177 152.727L9.93348 117.144V46.7987L72.0177 11.1752L134.102 46.7987V74.5011C134.102 74.5011 136.9 72.0177 139.069 72.0177C141.237 72.0177 144.035 74.5011 144.035 74.5011V40.9756Z" fill="#191B3E"/>
<path d="M104.301 100.577V63.3269L101.839 62.0852L72.0168 79.4688L42.1943 62.0852L39.7334 63.3269V100.577L52.1352 107.732V99.1353L47.1648 96.2679V73.2604L68.289 85.6772V108.454V117.052L72.0172 119.203L75.7446 117.052V108.454V85.6772L96.8689 73.2604V96.2679L91.8985 99.1353V107.733L104.301 100.577Z" fill="#191B3E"/>
<path d="M91.8985 55.8768L72.0168 44.7017L52.1352 55.8768L58.3482 59.6019L72.0168 52.1518L85.6855 59.6019L91.8985 55.8768Z" fill="#191B3E"/>
<path d="M352.613 49.2059C352.613 50.5011 351.696 52.7031 350.517 54.1278C348.552 56.4592 348.552 56.4592 349.338 53.6097C349.862 51.9259 349.6 50.7602 348.814 50.7602C348.028 50.7602 347.372 49.8535 347.372 48.8173C347.372 47.7812 348.552 46.8745 349.993 46.8745C351.696 46.8745 352.613 47.7811 352.613 49.2059Z" fill="#191B3E"/>
<path d="M225.935 93.5032C226.925 93.5032 227.751 93.1535 228.411 92.4541C229.119 91.7547 229.472 90.9387 229.472 90.0061V41.8856C229.472 40.2069 228.671 39.0879 227.067 38.5283C225.51 38.0154 224.166 38.4351 223.034 39.7873L202.093 74.8285L181.081 39.7873C179.996 38.3884 178.675 37.9688 177.119 38.5283C175.468 39.0879 174.643 40.2069 174.643 41.8856V90.0061C174.643 90.9387 174.996 91.7547 175.704 92.4541C176.411 93.1535 177.237 93.5032 178.18 93.5032C179.17 93.5032 179.996 93.1535 180.656 92.4541C181.364 91.7547 181.717 90.9387 181.717 90.0061V54.6851L199.192 83.5714C199.9 84.5039 200.867 84.9702 202.093 84.9702C203.319 84.9702 204.262 84.5039 204.923 83.5714L222.327 54.6851V90.0061C222.327 90.9387 222.681 91.7547 223.388 92.4541C224.143 93.1535 224.992 93.5032 225.935 93.5032Z" fill="#191B3E"/>
<path d="M284.406 93.2234C285.302 92.8038 285.915 92.151 286.245 91.2651C286.576 90.3791 286.552 89.4699 286.175 88.5373L264.172 40.5567C263.606 39.2044 262.545 38.5283 260.988 38.5283C259.526 38.5283 258.441 39.2044 257.734 40.5567L235.378 88.5373C234.434 90.6822 234.647 92.1976 236.014 93.0836C237.571 94.0161 239.104 93.7364 240.613 92.2443C243.584 89.3999 246.886 86.8587 250.518 84.6205C253.866 82.5689 257.404 81.1933 261.13 80.4939C265.611 79.5147 270.162 79.5846 274.784 80.7037L279.666 91.4749C280.138 92.4075 280.845 93.0369 281.788 93.3633C282.732 93.6431 283.604 93.5965 284.406 93.2234ZM260.918 50.4186L271.601 73.6395C267.45 73.2665 263.582 73.4763 259.998 74.269C255.753 75.1083 251.532 76.6937 247.334 79.0251L260.918 50.4186Z" fill="#191B3E"/>
<path d="M311.418 93.5032C315.191 93.5032 318.894 92.7805 322.525 91.335C326.063 89.8895 329.128 87.9078 331.723 85.3899C334.364 82.9186 336.439 80.0043 337.948 76.647C339.505 73.2898 340.283 69.7927 340.283 66.1557C340.283 62.5186 339.528 58.9516 338.019 55.4544C336.51 52.0972 334.458 49.1596 331.864 46.6417C329.129 44.0771 326.063 42.0954 322.667 40.6965C319.082 39.2511 315.38 38.5283 311.559 38.5283H295.358C294.368 38.5283 293.519 38.878 292.811 39.5775C292.104 40.1836 291.75 40.9996 291.75 42.0254V90.0061C291.75 90.9387 292.104 91.7547 292.811 92.4541C293.519 93.1535 294.368 93.5032 295.358 93.5032H311.418ZM298.896 86.439V45.5226H311.559C317.502 45.5226 322.596 47.5742 326.841 51.6775C328.775 53.5427 330.331 55.7342 331.51 58.2521C332.642 60.7701 333.208 63.4046 333.208 66.1557C333.208 68.8135 332.642 71.3547 331.51 73.7794C330.237 76.344 328.657 78.5355 326.77 80.354C324.789 82.2191 322.478 83.6879 319.837 84.7604C317.243 85.8328 314.484 86.3924 311.559 86.439H298.896Z" fill="#191B3E"/>
<path d="M382.698 93.5029C384.117 93.5029 385.703 93.3216 387.454 92.9589C389.205 92.5962 391.121 92.0295 393.204 91.2588C395.333 90.4427 397.203 89.1733 398.812 87.4506C400.421 85.6825 401.486 83.6197 402.006 81.2622C403.946 71.9231 398.693 65.8027 386.247 62.9012C379.716 61.3598 375.244 59.9544 372.831 58.685C370.417 57.3703 369.21 55.3755 369.21 52.7007C369.21 49.8445 370.37 47.7591 372.689 46.4443C375.055 45.1296 377.847 44.4722 381.065 44.4722C384.094 44.4722 386.413 44.7669 388.022 45.3563C390.577 46.263 392.636 47.5551 394.198 49.2325C394.292 49.2778 394.434 49.4138 394.624 49.6405C394.86 49.8219 395.049 49.9579 395.191 50.0485C396.564 50.7739 397.794 50.5019 398.883 49.2325C399.735 48.2351 399.948 47.1697 399.522 46.0363C399.048 44.7669 398.102 43.5655 396.682 42.4321C395.31 41.2534 393.63 40.3013 391.642 39.576C388.519 38.3972 384.993 37.8079 381.065 37.8079C372.547 37.8079 366.678 40.8907 363.46 47.0564C362.656 48.3258 362.254 50.2752 362.254 52.9047C362.301 55.5342 362.869 57.733 363.957 59.501C365.614 62.1759 368.524 64.3066 372.689 65.8934C375.244 66.9361 378.58 67.8655 382.698 68.6816C389.986 70.1323 394.245 72.5804 395.475 76.026C396.043 77.5674 395.972 79.1995 395.262 80.9222C394.127 83.733 391.524 85.5465 387.454 86.3625C384.614 86.9519 381.515 86.9972 378.155 86.4985C373.375 85.7278 369.92 84.0957 367.79 81.6023C367.175 80.7862 366.678 80.2875 366.3 80.1062C365.069 79.5168 363.934 79.7662 362.892 80.8542C361.851 81.8969 361.544 83.0303 361.97 84.2544C362.869 86.6572 364.88 88.652 368.003 90.2387C370.417 91.5535 373.446 92.5055 377.09 93.0949C378.935 93.3669 380.805 93.5029 382.698 93.5029Z" fill="#191B3E"/>
<path d="M181.772 126.825C183.025 126.825 184.252 126.596 185.452 126.139C186.584 125.717 187.619 125.11 188.559 124.319C188.838 124.09 188.985 123.8 189.003 123.448C189.038 123.079 188.942 122.754 188.716 122.472C188.472 122.191 188.176 122.041 187.828 122.024C187.48 121.989 187.167 122.085 186.888 122.314C186.14 122.93 185.357 123.387 184.539 123.686C183.599 124.02 182.677 124.187 181.772 124.187C179.544 124.187 177.629 123.378 176.028 121.76C175.297 121.039 174.714 120.177 174.279 119.175C173.861 118.172 173.653 117.135 173.653 116.062C173.653 114.954 173.861 113.916 174.279 112.949C174.697 111.982 175.28 111.12 176.028 110.364C176.759 109.625 177.629 109.036 178.639 108.596C179.666 108.174 180.727 107.963 181.824 107.963C183.634 107.963 185.235 108.508 186.627 109.599C186.906 109.81 187.219 109.889 187.567 109.836C187.933 109.783 188.228 109.616 188.455 109.335C188.663 109.054 188.742 108.737 188.69 108.385C188.637 108.016 188.472 107.717 188.194 107.488C186.349 106.046 184.225 105.325 181.824 105.325C180.397 105.325 179.004 105.607 177.647 106.169C176.307 106.75 175.158 107.524 174.201 108.491C173.209 109.458 172.434 110.592 171.877 111.894C171.32 113.23 171.042 114.62 171.042 116.062C171.042 117.539 171.32 118.92 171.877 120.204C172.452 121.54 173.217 122.683 174.175 123.633C175.132 124.6 176.263 125.374 177.568 125.954C178.909 126.535 180.31 126.825 181.772 126.825Z" fill="#191B3E"/>
<path d="M205.099 126.456C205.116 126.456 205.151 126.456 205.203 126.456C205.273 126.438 205.325 126.429 205.36 126.429C205.708 126.359 205.977 126.174 206.169 125.875C206.378 125.559 206.447 125.225 206.378 124.873C205.977 122.798 205.316 121.127 204.394 119.861C204.011 119.333 203.584 118.876 203.115 118.489L203.532 118.278C205.534 117.117 206.534 115.27 206.534 112.738C206.534 111.612 206.36 110.592 206.012 109.678C205.699 108.869 205.246 108.165 204.655 107.568C203.872 106.776 202.888 106.231 201.705 105.932C201.165 105.791 200.652 105.721 200.165 105.721H192.411C192.063 105.721 191.758 105.853 191.497 106.117C191.236 106.363 191.106 106.671 191.106 107.04V125.137C191.106 125.488 191.236 125.796 191.497 126.06C191.758 126.324 192.063 126.456 192.411 126.456C192.777 126.456 193.081 126.324 193.325 126.06C193.586 125.796 193.716 125.488 193.716 125.137V108.359H200.165C200.826 108.359 201.487 108.544 202.149 108.913C202.688 109.247 203.088 109.652 203.349 110.126C203.732 110.847 203.924 111.718 203.924 112.738C203.924 114.25 203.358 115.332 202.227 115.983C201.409 116.458 200.339 116.73 199.016 116.801C198.494 116.765 198.05 116.792 197.684 116.88C197.354 116.932 197.084 117.1 196.875 117.381C196.684 117.645 196.605 117.944 196.64 118.278C196.658 118.612 196.788 118.902 197.032 119.148C197.293 119.377 197.589 119.491 197.919 119.491C198.041 119.491 198.224 119.491 198.468 119.491C198.711 119.474 198.885 119.465 198.99 119.465C199.529 119.5 200.034 119.641 200.504 119.887C201.235 120.239 201.844 120.775 202.331 121.496C203.01 122.463 203.506 123.756 203.819 125.374C203.889 125.691 204.046 125.954 204.289 126.165C204.533 126.359 204.803 126.456 205.099 126.456Z" fill="#191B3E"/>
<path d="M223.63 105.958C223.926 106.169 224.109 106.46 224.178 106.829C224.248 107.181 224.187 107.506 223.996 107.805L217.182 118.093V125.163C217.182 125.515 217.051 125.823 216.79 126.086C216.547 126.35 216.242 126.482 215.877 126.482C215.529 126.482 215.224 126.35 214.963 126.086C214.702 125.823 214.571 125.515 214.571 125.163V118.093L207.784 107.805C207.592 107.506 207.531 107.181 207.601 106.829C207.671 106.46 207.853 106.169 208.149 105.958C208.445 105.765 208.767 105.703 209.115 105.774C209.481 105.844 209.759 106.029 209.951 106.328L215.877 115.323L221.829 106.328C222.02 106.029 222.29 105.844 222.638 105.774C223.004 105.703 223.334 105.765 223.63 105.958Z" fill="#191B3E"/>
<path d="M227.593 126.482C227.958 126.482 228.263 126.359 228.507 126.113C228.768 125.849 228.898 125.532 228.898 125.163V108.385H235.346C236.008 108.385 236.669 108.579 237.33 108.966C237.852 109.282 238.253 109.687 238.531 110.179C238.914 110.865 239.106 111.727 239.106 112.764C239.106 114.277 238.54 115.358 237.409 116.009C236.417 116.59 234.981 116.88 233.101 116.88C232.753 116.88 232.449 117.012 232.188 117.275C231.926 117.522 231.796 117.829 231.796 118.199C231.796 118.568 231.926 118.885 232.188 119.148C232.449 119.395 232.753 119.518 233.101 119.518C235.451 119.518 237.322 119.113 238.714 118.304C240.715 117.143 241.716 115.297 241.716 112.764C241.716 111.639 241.542 110.619 241.194 109.704C240.881 108.895 240.428 108.192 239.837 107.594C239.019 106.785 238.035 106.24 236.887 105.958C236.347 105.818 235.834 105.747 235.346 105.747H227.593C227.245 105.747 226.94 105.879 226.679 106.143C226.418 106.389 226.288 106.697 226.288 107.066V125.163C226.288 125.532 226.418 125.849 226.679 126.113C226.94 126.359 227.245 126.482 227.593 126.482Z" fill="#191B3E"/>
<path d="M259.178 105.747C259.544 105.747 259.848 105.879 260.092 106.143C260.353 106.389 260.484 106.697 260.484 107.066C260.484 107.436 260.353 107.752 260.092 108.016C259.848 108.262 259.544 108.385 259.178 108.385H253.461V125.163C253.461 125.532 253.331 125.849 253.07 126.113C252.809 126.359 252.504 126.482 252.156 126.482C251.79 126.482 251.477 126.359 251.216 126.113C250.972 125.849 250.851 125.532 250.851 125.163V108.385H245.107C244.742 108.385 244.429 108.262 244.167 108.016C243.924 107.752 243.802 107.436 243.802 107.066C243.802 106.697 243.924 106.389 244.167 106.143C244.429 105.879 244.742 105.747 245.107 105.747H259.178Z" fill="#191B3E"/>
<path d="M270.819 126.931C273.778 126.931 276.293 125.867 278.364 123.739C279.338 122.754 280.087 121.611 280.609 120.309C281.148 119.043 281.418 117.662 281.418 116.167C281.418 114.708 281.148 113.327 280.609 112.026C280.069 110.707 279.33 109.572 278.39 108.623C276.336 106.495 273.839 105.431 270.897 105.431C269.453 105.431 268.052 105.712 266.694 106.275C265.389 106.838 264.249 107.611 263.275 108.596C262.283 109.564 261.508 110.698 260.951 111.999C260.377 113.318 260.09 114.708 260.09 116.167C260.09 117.592 260.368 118.973 260.925 120.309C261.447 121.558 262.213 122.701 263.222 123.739C264.197 124.723 265.337 125.497 266.642 126.06C267.965 126.64 269.357 126.931 270.819 126.931ZM270.897 108.069C273.125 108.069 275.005 108.869 276.536 110.469C278.05 112.035 278.808 113.934 278.808 116.167C278.808 117.24 278.607 118.287 278.207 119.307C277.772 120.327 277.206 121.188 276.51 121.892C274.926 123.492 273.029 124.292 270.819 124.292C268.591 124.292 266.677 123.484 265.076 121.866C264.345 121.144 263.762 120.283 263.327 119.28C262.909 118.278 262.7 117.24 262.7 116.167C262.7 115.042 262.918 114.004 263.353 113.055C263.736 112.087 264.319 111.226 265.102 110.469C265.85 109.713 266.721 109.124 267.713 108.702C268.739 108.28 269.801 108.069 270.897 108.069Z" fill="#191B3E"/>
<path d="M303.76 126.825C305.014 126.825 306.241 126.596 307.441 126.139C308.573 125.717 309.608 125.11 310.548 124.319C310.826 124.09 310.974 123.8 310.992 123.448C311.027 123.079 310.931 122.754 310.705 122.472C310.461 122.191 310.165 122.041 309.817 122.024C309.469 121.989 309.156 122.085 308.877 122.314C308.129 122.93 307.346 123.387 306.528 123.686C305.588 124.02 304.665 124.187 303.76 124.187C301.533 124.187 299.618 123.378 298.017 121.76C297.286 121.039 296.703 120.177 296.268 119.175C295.85 118.172 295.642 117.135 295.642 116.062C295.642 114.954 295.85 113.916 296.268 112.949C296.686 111.982 297.269 111.12 298.017 110.364C298.748 109.625 299.618 109.036 300.628 108.596C301.655 108.174 302.716 107.963 303.813 107.963C305.623 107.963 307.224 108.508 308.616 109.599C308.895 109.81 309.208 109.889 309.556 109.836C309.921 109.783 310.217 109.616 310.444 109.335C310.652 109.054 310.731 108.737 310.679 108.385C310.626 108.016 310.461 107.717 310.183 107.488C308.338 106.046 306.214 105.325 303.813 105.325C302.386 105.325 300.993 105.607 299.636 106.169C298.296 106.75 297.147 107.524 296.19 108.491C295.198 109.458 294.423 110.592 293.866 111.894C293.309 113.23 293.031 114.62 293.031 116.062C293.031 117.539 293.309 118.92 293.866 120.204C294.441 121.54 295.206 122.683 296.164 123.633C297.121 124.6 298.252 125.374 299.557 125.954C300.898 126.535 302.299 126.825 303.76 126.825Z" fill="#191B3E"/>
<path d="M323.694 126.931C326.652 126.931 329.167 125.867 331.238 123.739C332.213 122.754 332.961 121.611 333.483 120.309C334.023 119.043 334.293 117.662 334.293 116.167C334.293 114.708 334.023 113.327 333.483 112.026C332.944 110.707 332.204 109.572 331.264 108.623C329.211 106.495 326.713 105.431 323.772 105.431C322.328 105.431 320.927 105.712 319.569 106.275C318.264 106.838 317.124 107.611 316.149 108.596C315.157 109.564 314.383 110.698 313.826 111.999C313.251 113.318 312.964 114.708 312.964 116.167C312.964 117.592 313.243 118.973 313.8 120.309C314.322 121.558 315.088 122.701 316.097 123.739C317.072 124.723 318.212 125.497 319.517 126.06C320.84 126.64 322.232 126.931 323.694 126.931ZM323.772 108.069C326 108.069 327.879 108.869 329.411 110.469C330.925 112.035 331.682 113.934 331.682 116.167C331.682 117.24 331.482 118.287 331.082 119.307C330.647 120.327 330.081 121.188 329.385 121.892C327.801 123.492 325.904 124.292 323.694 124.292C321.466 124.292 319.552 123.484 317.95 121.866C317.22 121.144 316.636 120.283 316.201 119.28C315.784 118.278 315.575 117.24 315.575 116.167C315.575 115.042 315.792 114.004 316.227 113.055C316.61 112.087 317.193 111.226 317.977 110.469C318.725 109.713 319.595 109.124 320.587 108.702C321.614 108.28 322.676 108.069 323.772 108.069Z" fill="#191B3E"/>
<path d="M350.236 126.456C350.254 126.456 350.288 126.456 350.341 126.456C350.41 126.438 350.462 126.429 350.497 126.429C350.845 126.359 351.115 126.174 351.306 125.875C351.515 125.559 351.585 125.225 351.515 124.873C351.115 122.798 350.454 121.127 349.531 119.861C349.148 119.333 348.722 118.876 348.252 118.489L348.67 118.278C350.671 117.117 351.672 115.27 351.672 112.738C351.672 111.612 351.498 110.592 351.15 109.678C350.837 108.869 350.384 108.165 349.792 107.568C349.009 106.776 348.026 106.231 346.842 105.932C346.303 105.791 345.789 105.721 345.302 105.721H337.549C337.201 105.721 336.896 105.853 336.635 106.117C336.374 106.363 336.243 106.671 336.243 107.04V125.137C336.243 125.488 336.374 125.796 336.635 126.06C336.896 126.324 337.201 126.456 337.549 126.456C337.914 126.456 338.219 126.324 338.462 126.06C338.723 125.796 338.854 125.488 338.854 125.137V108.359H345.302C345.963 108.359 346.625 108.544 347.286 108.913C347.826 109.247 348.226 109.652 348.487 110.126C348.87 110.847 349.061 111.718 349.061 112.738C349.061 114.25 348.496 115.332 347.364 115.983C346.546 116.458 345.476 116.73 344.153 116.801C343.631 116.765 343.188 116.792 342.822 116.88C342.491 116.932 342.222 117.1 342.013 117.381C341.821 117.645 341.743 117.944 341.778 118.278C341.795 118.612 341.926 118.902 342.169 119.148C342.43 119.377 342.726 119.491 343.057 119.491C343.179 119.491 343.362 119.491 343.605 119.491C343.849 119.474 344.023 119.465 344.127 119.465C344.667 119.5 345.172 119.641 345.641 119.887C346.372 120.239 346.982 120.775 347.469 121.496C348.148 122.463 348.644 123.756 348.957 125.374C349.027 125.691 349.183 125.954 349.427 126.165C349.671 126.359 349.94 126.456 350.236 126.456Z" fill="#191B3E"/>
<path d="M370.492 126.377C371.031 126.218 371.301 125.823 371.301 125.189V107.04C371.301 106.671 371.17 106.363 370.909 106.117C370.648 105.853 370.344 105.721 369.996 105.721C369.63 105.721 369.317 105.853 369.056 106.117C368.812 106.363 368.69 106.671 368.69 107.04V121.523L356.055 106.222C355.672 105.747 355.194 105.615 354.619 105.826C354.045 106.037 353.758 106.451 353.758 107.066V125.163C353.758 125.532 353.88 125.849 354.123 126.113C354.384 126.359 354.698 126.482 355.063 126.482C355.429 126.482 355.733 126.359 355.977 126.113C356.238 125.849 356.368 125.532 356.368 125.163V110.707L368.978 126.034C369.326 126.456 369.83 126.57 370.492 126.377Z" fill="#191B3E"/>
<path d="M387.172 123.844C387.538 123.844 387.842 123.976 388.086 124.24C388.347 124.486 388.477 124.794 388.477 125.163C388.477 125.532 388.347 125.849 388.086 126.113C387.842 126.359 387.538 126.482 387.172 126.482H374.693C374.345 126.482 374.041 126.359 373.78 126.113C373.519 125.849 373.388 125.532 373.388 125.163V107.066C373.388 106.697 373.519 106.389 373.78 106.143C374.041 105.879 374.345 105.747 374.693 105.747H386.911C387.277 105.747 387.581 105.879 387.825 106.143C388.086 106.389 388.216 106.697 388.216 107.066C388.216 107.436 388.086 107.752 387.825 108.016C387.581 108.262 387.277 108.385 386.911 108.385H375.999V114.743H385.658C386.023 114.743 386.328 114.875 386.572 115.139C386.833 115.402 386.963 115.71 386.963 116.062C386.963 116.431 386.833 116.748 386.572 117.012C386.328 117.258 386.023 117.381 385.658 117.381H375.999V123.844H387.172Z" fill="#191B3E"/>
<path d="M404.564 126.456C404.581 126.456 404.616 126.456 404.668 126.456C404.738 126.438 404.79 126.429 404.825 126.429C405.173 126.359 405.443 126.174 405.634 125.875C405.843 125.559 405.913 125.225 405.843 124.873C405.443 122.798 404.781 121.127 403.859 119.861C403.476 119.333 403.05 118.876 402.58 118.489L402.998 118.278C404.999 117.117 406 115.27 406 112.738C406 111.612 405.826 110.592 405.478 109.678C405.164 108.869 404.712 108.165 404.12 107.568C403.337 106.776 402.354 106.231 401.17 105.932C400.631 105.791 400.117 105.721 399.63 105.721H391.876C391.528 105.721 391.224 105.853 390.963 106.117C390.702 106.363 390.571 106.671 390.571 107.04V125.137C390.571 125.488 390.702 125.796 390.963 126.06C391.224 126.324 391.528 126.456 391.876 126.456C392.242 126.456 392.546 126.324 392.79 126.06C393.051 125.796 393.182 125.488 393.182 125.137V108.359H399.63C400.291 108.359 400.953 108.544 401.614 108.913C402.153 109.247 402.554 109.652 402.815 110.126C403.198 110.847 403.389 111.718 403.389 112.738C403.389 114.25 402.824 115.332 401.692 115.983C400.874 116.458 399.804 116.73 398.481 116.801C397.959 116.765 397.515 116.792 397.15 116.88C396.819 116.932 396.549 117.1 396.341 117.381C396.149 117.645 396.071 117.944 396.106 118.278C396.123 118.612 396.254 118.902 396.497 119.148C396.758 119.377 397.054 119.491 397.385 119.491C397.507 119.491 397.689 119.491 397.933 119.491C398.177 119.474 398.351 119.465 398.455 119.465C398.995 119.5 399.499 119.641 399.969 119.887C400.7 120.239 401.309 120.775 401.797 121.496C402.475 122.463 402.971 123.756 403.285 125.374C403.354 125.691 403.511 125.954 403.755 126.165C403.998 126.359 404.268 126.456 404.564 126.456Z" fill="#191B3E"/>
</svg>
