<svg width="468" height="140" viewBox="0 0 468 140" fill="none" xmlns="http://www.w3.org/2000/svg">
<path d="M87.3867 40.198C87.3867 17.9973 105.384 0 127.585 0C149.785 0 167.783 17.9973 167.783 40.198H146.81C146.81 29.5802 138.202 20.9729 127.585 20.9729C116.967 20.9729 108.36 29.5802 108.36 40.198H87.3867Z" fill="#191B3E"/>
<path d="M0 40.198C0 17.9973 17.9973 0 40.198 0C62.3987 0 80.396 17.9973 80.396 40.198H59.4231C59.4231 29.5802 50.8157 20.9729 40.198 20.9729C29.5802 20.9729 20.9729 29.5802 20.9729 40.198C20.9729 50.8157 29.5802 59.4231 40.198 59.4231H127.585C149.786 59.4231 167.783 77.4204 167.783 99.6211C167.783 121.822 149.786 139.819 127.585 139.819C105.384 139.819 87.3869 121.822 87.3869 99.6211H108.36C108.36 110.239 116.967 118.846 127.585 118.846C138.203 118.846 146.81 110.239 146.81 99.6211C146.81 89.0033 138.203 80.396 127.585 80.396H40.198C17.9973 80.396 0 62.3987 0 40.198Z" fill="#191B3E"/>
<path d="M40.198 139.819C17.9973 139.819 0 121.822 0 99.6211H20.9729C20.9729 110.239 29.5802 118.846 40.198 118.846C50.8157 118.846 59.4231 110.239 59.4231 99.6211H80.396C80.396 121.822 62.3987 139.819 40.198 139.819Z" fill="#191B3E"/>
<path d="M190.168 94.3785L173.236 54.0058H178.864L192.125 86.8912L205.387 54.0058H210.99L194.058 94.3785H190.168Z" fill="#191B3E"/>
<path d="M221.172 94.3785V54.0058H242.142V58.3856H226.139V71.9655H241.555V76.3209H226.139V89.9987H242.142V94.3785H221.172Z" fill="#191B3E"/>
<path d="M254.623 94.3785V54.0058H259.59L279.997 85.9859V54.0058H284.964V94.3785H279.997L259.59 62.4229V94.3785H254.623Z" fill="#191B3E"/>
<path d="M304.741 94.3785V58.459H293.045V54.0058H321.428V58.459H309.708V94.3785H304.741Z" fill="#191B3E"/>
<path d="M345.623 95.1615C340.86 95.1615 337.271 93.8892 334.857 91.3445C332.443 88.7998 331.236 85.0072 331.236 79.9667V54.0058H336.203V78.7188C336.203 82.65 336.97 85.5618 338.503 87.454C340.053 89.3299 342.426 90.2679 345.623 90.2679C348.821 90.2679 351.186 89.3299 352.719 87.454C354.269 85.5618 355.044 82.65 355.044 78.7188V54.0058H360.035V79.9667C360.035 85.0072 358.828 88.7998 356.414 91.3445C354 93.8892 350.403 95.1615 345.623 95.1615Z" fill="#191B3E"/>
<path d="M373.901 94.3785V54.0058H385.352C388.027 54.0058 390.343 54.4707 392.301 55.4005C394.258 56.3303 395.767 57.6679 396.828 59.4133C397.904 61.1424 398.442 63.2222 398.442 65.6527C398.442 67.7733 398.026 69.6574 397.195 71.3049C396.363 72.9524 395.172 74.2982 393.622 75.3422C392.089 76.3862 390.254 77.0713 388.117 77.3975L401.476 94.3785H395.164L382.66 77.9113H378.868V94.3785H373.901ZM378.868 73.6783H384.006C385.931 73.6783 387.587 73.3602 388.973 72.7241C390.36 72.0879 391.428 71.1826 392.179 70.0081C392.929 68.8173 393.304 67.4063 393.304 65.7751C393.304 63.3445 392.48 61.4442 390.833 60.0739C389.202 58.7037 386.926 58.0186 384.006 58.0186H378.868V73.6783Z" fill="#191B3E"/>
<path d="M410.888 94.3785V54.0058H431.857V58.3856H415.855V71.9655H431.27V76.3209H415.855V89.9987H431.857V94.3785H410.888Z" fill="#191B3E"/>
<path d="M454.542 95.1615C452.519 95.1615 450.717 94.8842 449.135 94.3296C447.552 93.7587 446.19 93.0654 445.048 92.2498C443.907 91.4342 442.969 90.6349 442.235 89.8519C441.501 89.0526 440.962 88.4246 440.62 87.9678L443.336 84.1018C443.711 84.5586 444.217 85.1458 444.853 85.8636C445.489 86.5813 446.272 87.299 447.202 88.0168C448.132 88.7345 449.216 89.3381 450.456 89.8274C451.696 90.3168 453.099 90.5615 454.665 90.5615C456.149 90.5615 457.495 90.3005 458.702 89.7785C459.909 89.2565 460.871 88.4817 461.589 87.454C462.323 86.4263 462.69 85.154 462.69 83.6369C462.69 82.3483 462.429 81.2554 461.907 80.3582C461.385 79.4447 460.659 78.6617 459.73 78.0092C458.8 77.3567 457.715 76.7613 456.475 76.223C455.235 75.6684 453.898 75.1138 452.462 74.5592C451.451 74.1514 450.423 73.6783 449.379 73.14C448.335 72.5854 447.373 71.9166 446.492 71.1336C445.611 70.3343 444.902 69.3882 444.363 68.2953C443.825 67.2024 443.556 65.9137 443.556 64.4293C443.556 62.9286 443.841 61.5094 444.412 60.1718C444.983 58.8342 445.791 57.6516 446.835 56.6239C447.879 55.5799 449.118 54.7643 450.554 54.1771C452.006 53.5735 453.612 53.2717 455.374 53.2717C456.94 53.2717 458.416 53.5164 459.803 54.0058C461.206 54.4951 462.454 55.1232 463.547 55.8898C464.639 56.6402 465.512 57.4313 466.165 58.2633L463.84 61.9091C463.302 61.2076 462.617 60.547 461.785 59.9271C460.953 59.2909 459.999 58.7771 458.922 58.3856C457.845 57.9941 456.687 57.7984 455.448 57.7984C453.931 57.7984 452.642 58.1165 451.582 58.7526C450.538 59.3725 449.738 60.18 449.184 61.175C448.629 62.17 448.352 63.2303 448.352 64.3559C448.352 65.3672 448.556 66.2236 448.963 66.9251C449.388 67.6265 449.95 68.2219 450.652 68.7113C451.353 69.2006 452.144 69.6329 453.025 70.0081C453.906 70.3833 454.811 70.7421 455.741 71.0847C457.405 71.7372 458.979 72.4141 460.464 73.1156C461.948 73.8007 463.253 74.6081 464.378 75.5379C465.504 76.4514 466.385 77.5525 467.021 78.8411C467.674 80.1298 468 81.6876 468 83.5146C468 85.9777 467.413 88.082 466.238 89.8274C465.08 91.5565 463.489 92.8778 461.467 93.7913C459.444 94.7048 457.136 95.1615 454.542 95.1615Z" fill="#191B3E"/>
</svg>
