<svg width="539" height="51" viewBox="0 0 539 51" fill="none" xmlns="http://www.w3.org/2000/svg">
<path d="M36.1366 0.980769V10.228H22.8748V50.0192H13.1916V10.228H0V0.980769H36.1366Z" fill="#191B3E"/>
<path d="M62.0313 14.011C65.8672 14.011 69.0247 15.2953 71.504 17.864C74.0301 20.4327 75.2931 23.9821 75.2931 28.5124V50.0192H66.2414V29.6332C66.2414 27.2981 65.6099 25.5234 64.3469 24.3091C63.0838 23.0481 61.3998 22.4176 59.2948 22.4176C56.9558 22.4176 55.0847 23.1415 53.6813 24.5893C52.278 26.0371 51.5763 28.2088 51.5763 31.1044V50.0192H42.5246V0.980769H51.5763V18.9148C53.7749 15.6456 57.2599 14.011 62.0313 14.011Z" fill="#191B3E"/>
<path d="M92.0737 36.2184C93.2899 40.6085 96.5878 42.8036 101.967 42.8036C105.429 42.8036 108.049 41.636 109.826 39.3008L117.124 43.5041C113.662 48.5014 108.563 51 101.827 51C96.0265 51 91.372 49.2486 87.8636 45.7459C84.3552 42.2431 82.601 37.8297 82.601 32.5055C82.601 27.228 84.3318 22.8379 87.7934 19.3352C91.2551 15.7857 95.699 14.011 101.125 14.011C106.271 14.011 110.505 15.7857 113.826 19.3352C117.194 22.8846 118.878 27.2747 118.878 32.5055C118.878 33.6731 118.761 34.9107 118.527 36.2184H92.0737ZM91.9333 29.2129H109.826C109.312 26.831 108.236 25.0563 106.598 23.8887C105.008 22.7212 103.184 22.1374 101.125 22.1374C98.6929 22.1374 96.6814 22.7679 95.0909 24.0288C93.5004 25.2431 92.4479 26.9712 91.9333 29.2129Z" fill="#191B3E"/>
<path d="M175.227 23.6786V27.4615C175.227 34.467 172.981 40.1415 168.491 44.4849C164 48.8283 158.199 51 151.089 51C143.511 51 137.219 48.5481 132.214 43.6442C127.255 38.6937 124.776 32.669 124.776 25.5701C124.776 18.4244 127.232 12.3764 132.144 7.42582C137.102 2.47527 143.23 0 150.528 0C155.112 0 159.299 1.05082 163.088 3.15247C166.877 5.20742 169.824 7.96291 171.929 11.419L163.649 16.1827C162.479 14.1745 160.702 12.5398 158.316 11.2788C155.977 10.0179 153.358 9.38736 150.457 9.38736C145.779 9.38736 141.92 10.9286 138.88 14.011C135.886 17.0467 134.389 20.8997 134.389 25.5701C134.389 30.1937 135.909 34.0234 138.95 37.0591C142.037 40.0481 146.107 41.5426 151.159 41.5426C154.901 41.5426 157.989 40.7253 160.421 39.0907C162.901 37.4093 164.585 35.1209 165.473 32.2253H150.598V23.6786H175.227Z" fill="#191B3E"/>
<path d="M190.745 36.2184C191.961 40.6085 195.259 42.8036 200.639 42.8036C204.1 42.8036 206.72 41.636 208.497 39.3008L215.795 43.5041C212.333 48.5014 207.234 51 200.498 51C194.698 51 190.043 49.2486 186.535 45.7459C183.026 42.2431 181.272 37.8297 181.272 32.5055C181.272 27.228 183.003 22.8379 186.465 19.3352C189.926 15.7857 194.37 14.011 199.796 14.011C204.942 14.011 209.176 15.7857 212.497 19.3352C215.865 22.8846 217.549 27.2747 217.549 32.5055C217.549 33.6731 217.432 34.9107 217.198 36.2184H190.745ZM190.604 29.2129H208.497C207.983 26.831 206.907 25.0563 205.27 23.8887C203.679 22.7212 201.855 22.1374 199.796 22.1374C197.364 22.1374 195.353 22.7679 193.762 24.0288C192.172 25.2431 191.119 26.9712 190.604 29.2129Z" fill="#191B3E"/>
<path d="M264.074 14.011C268.097 14.011 271.302 15.3187 273.687 17.9341C276.12 20.5495 277.336 24.0522 277.336 28.4423V50.0192H268.284V29.0728C268.284 26.9712 267.77 25.3365 266.741 24.169C265.712 23.0014 264.261 22.4176 262.39 22.4176C260.332 22.4176 258.718 23.0948 257.549 24.4492C256.426 25.8036 255.865 27.7651 255.865 30.3338V50.0192H246.813V29.0728C246.813 26.9712 246.298 25.3365 245.269 24.169C244.24 23.0014 242.79 22.4176 240.919 22.4176C238.907 22.4176 237.293 23.0948 236.077 24.4492C234.908 25.8036 234.323 27.7651 234.323 30.3338V50.0192H225.271V14.9918H234.323V18.7047C236.428 15.5756 239.679 14.011 244.076 14.011C248.38 14.011 251.561 15.6923 253.619 19.0549C255.958 15.6923 259.443 14.011 264.074 14.011Z" fill="#191B3E"/>
<path d="M314.775 0.980769H324.388V50.0192H314.775V29.7033H296.531V50.0192H286.848V0.980769H296.531V20.456H314.775V0.980769Z" fill="#191B3E"/>
<path d="M357.651 14.9918H366.702V50.0192H357.651V46.0962C355.452 49.3654 351.967 51 347.195 51C343.36 51 340.179 49.7157 337.653 47.147C335.173 44.5783 333.934 41.0288 333.934 36.4986V14.9918H342.985V35.3778C342.985 37.7129 343.617 39.511 344.88 40.772C346.143 41.9863 347.827 42.5934 349.932 42.5934C352.271 42.5934 354.142 41.8695 355.546 40.4217C356.949 38.9739 357.651 36.8022 357.651 33.9066V14.9918Z" fill="#191B3E"/>
<path d="M395.903 14.011C399.738 14.011 402.896 15.2953 405.375 17.864C407.901 20.4327 409.164 23.9821 409.164 28.5124V50.0192H400.113V29.6332C400.113 27.2981 399.481 25.5234 398.218 24.3091C396.955 23.0481 395.271 22.4176 393.166 22.4176C390.827 22.4176 388.956 23.1415 387.553 24.5893C386.149 26.0371 385.448 28.2088 385.448 31.1044V50.0192H376.396V14.9918H385.448V18.9148C387.646 15.6456 391.131 14.011 395.903 14.011Z" fill="#191B3E"/>
<path d="M438.365 23.6786H430.436V38.25C430.436 39.4643 430.74 40.3517 431.348 40.9121C431.956 41.4725 432.845 41.7994 434.014 41.8929C435.184 41.9396 436.634 41.9162 438.365 41.8228V50.0192C432.143 50.7198 427.746 50.136 425.173 48.2679C422.647 46.3997 421.384 43.0604 421.384 38.25V23.6786H415.279V14.9918H421.384V7.91621L430.436 5.18407V14.9918H438.365V23.6786Z" fill="#191B3E"/>
<path d="M452.702 36.2184C453.918 40.6085 457.216 42.8036 462.596 42.8036C466.057 42.8036 468.677 41.636 470.455 39.3008L477.752 43.5041C474.29 48.5014 469.191 51 462.455 51C456.655 51 452 49.2486 448.492 45.7459C444.984 42.2431 443.229 37.8297 443.229 32.5055C443.229 27.228 444.96 22.8379 448.422 19.3352C451.883 15.7857 456.327 14.011 461.754 14.011C466.899 14.011 471.133 15.7857 474.454 19.3352C477.822 22.8846 479.506 27.2747 479.506 32.5055C479.506 33.6731 479.389 34.9107 479.155 36.2184H452.702ZM452.562 29.2129H470.455C469.94 26.831 468.864 25.0563 467.227 23.8887C465.636 22.7212 463.812 22.1374 461.754 22.1374C459.321 22.1374 457.31 22.7679 455.719 24.0288C454.129 25.2431 453.076 26.9712 452.562 29.2129Z" fill="#191B3E"/>
<path d="M496.28 21.0165C497.122 18.7747 498.502 17.0934 500.42 15.9725C502.385 14.8516 504.56 14.2912 506.946 14.2912V24.3791C504.186 24.0522 501.707 24.6126 499.508 26.0604C497.356 27.5082 496.28 29.9135 496.28 33.2761V50.0192H487.229V14.9918H496.28V21.0165Z" fill="#191B3E"/>
<path d="M520.897 24.9396C520.897 25.8736 521.505 26.6442 522.721 27.2514C523.984 27.8118 525.504 28.3255 527.282 28.7926C529.06 29.2129 530.837 29.7734 532.615 30.4739C534.392 31.1277 535.889 32.2486 537.106 33.8365C538.369 35.4244 539 37.4093 539 39.7912C539 43.3874 537.643 46.1662 534.93 48.1277C532.264 50.0426 528.919 51 524.896 51C517.692 51 512.781 48.2212 510.161 42.6635L518.02 38.25C519.049 41.2857 521.341 42.8036 524.896 42.8036C528.124 42.8036 529.738 41.7994 529.738 39.7912C529.738 38.8571 529.106 38.1099 527.843 37.5494C526.627 36.9423 525.13 36.4052 523.353 35.9382C521.575 35.4712 519.797 34.8874 518.02 34.1868C516.242 33.4863 514.722 32.3887 513.459 30.8942C512.243 29.353 511.634 27.4382 511.634 25.1497C511.634 21.6937 512.897 18.9849 515.424 17.0234C517.996 15.0151 521.177 14.011 524.966 14.011C527.82 14.011 530.416 14.6648 532.755 15.9725C535.094 17.2335 536.942 19.0549 538.298 21.4368L530.58 25.6401C529.457 23.2582 527.586 22.0673 524.966 22.0673C523.797 22.0673 522.815 22.3242 522.019 22.8379C521.271 23.3516 520.897 24.0522 520.897 24.9396Z" fill="#191B3E"/>
</svg>
