<svg width="272" height="200" viewBox="0 0 272 200" fill="none" xmlns="http://www.w3.org/2000/svg">
<path fill-rule="evenodd" clip-rule="evenodd" d="M100.724 83.0592L111.634 65.4556L114.52 60.8001L117.406 56.1445L124.745 67.986L135.248 84.9313L142.715 96.978H164.533L157.067 84.9313L146.565 67.986L128.317 38.5409L127.925 37.9092L117.422 20.9639H117.391L106.889 37.9092L106.496 38.5409L100.724 47.8538L89.8146 65.4556L88.2482 67.986L77.7461 84.9313L70.2806 96.9746L59.3757 114.572L48.8652 131.528H70.685L81.1921 114.575L112.448 114.578L101.537 96.978H96.8177H92.0987L99.5642 84.9313L100.724 83.0592Z" fill="#191B3E"/>
<path d="M26.0244 163.056L35.3315 143.008H42.018L29.3511 168.621L22.9679 170.331L9.83032 143.008H16.55L26.0244 163.056Z" fill="#191B3E"/>
<path d="M50.8195 159.201V163.995H70.3071L68.5932 169.661H44.4695V143.01H70.3071L68.5932 148.676H50.8195V153.536H67.3832V159.203H50.8195V159.201Z" fill="#191B3E"/>
<path d="M94.4657 143.009H100.816V169.661H94.4657L80.4877 152.094V169.661H74.1377V144.048L80.4877 142.338L94.4657 159.905V143.009Z" fill="#191B3E"/>
<path d="M103.839 148.674V143.008H131.76L130.046 148.674H120.068V169.66H113.685V148.674H103.839Z" fill="#191B3E"/>
<path d="M156.22 159.099V143.007H162.57V159.099C162.57 163.591 160.555 166.765 156.522 168.62C154.17 169.694 151.326 170.23 147.987 170.23C143.036 170.23 139.297 168.989 136.766 166.509C134.817 164.587 133.842 162.118 133.842 159.099V144.046L140.225 142.336V159.098C140.225 161.578 141.356 163.176 143.618 163.892C144.805 164.273 146.361 164.463 148.289 164.463C152.478 164.463 154.997 163.401 155.849 161.277C156.098 160.631 156.22 159.905 156.22 159.099Z" fill="#191B3E"/>
<path d="M166.872 152.597L173.222 150.887V155.58H184.612C185.867 155.58 186.741 154.955 187.233 153.703C187.435 153.189 187.535 152.653 187.535 152.094C187.535 150.731 187.076 149.736 186.157 149.111C185.687 148.821 185.171 148.674 184.612 148.674H166.872L168.586 143.008H184.68C187.974 143.008 190.527 144.204 192.342 146.595C193.618 148.294 194.256 150.227 194.256 152.395C194.256 154.988 193.382 157.122 191.635 158.799C190.717 159.67 189.641 160.307 188.41 160.709L195.028 169.66H187.536L181.723 161.245H173.222V169.66H166.872V152.597Z" fill="#191B3E"/>
<path d="M204.201 159.201V163.995H223.689L221.975 169.661H197.851V143.01H223.689L221.975 148.676H204.201V153.536H220.765V159.203H204.201V159.201Z" fill="#191B3E"/>
<path d="M254.232 162.125C254.094 170.518 247.613 177.193 239.201 177.12L20.344 175.225L237.062 174.117C242.429 174.089 246.765 169.742 246.766 164.387C246.768 161.523 244.454 159.186 241.583 159.168C241.568 159.168 241.555 159.168 241.542 159.168H235.983C232.399 159.168 229.734 158.028 227.987 155.747C226.934 154.385 226.407 152.842 226.407 151.122C226.407 148.798 227.285 146.865 229.044 145.322C230.803 143.78 233.115 143.008 235.983 143.008H254.129L252.415 148.674H236.052C234.686 148.674 233.778 149.177 233.33 150.182C233.196 150.495 233.128 150.809 233.128 151.122C233.128 152.082 233.599 152.787 234.539 153.234C234.986 153.435 235.49 153.535 236.051 153.535H245.256C248.684 153.535 251.116 155.291 252.886 157.482C254.007 158.89 254.055 160.008 254.235 161.615C254.255 161.786 254.235 161.956 254.232 162.125Z" fill="#191B3E"/>
<path fill-rule="evenodd" clip-rule="evenodd" d="M199.257 70.6292C202.897 65.5552 205.023 59.4723 205.023 52.9479C205.023 35.3576 189.568 20.9658 170.679 20.9658H139.209L132.319 32.083L135.931 37.9111H171.208C180.091 37.9111 187.357 44.6787 187.357 52.9496C187.357 61.2204 180.091 67.988 171.208 67.988H154.578L165.083 84.9333H170.679C172.569 84.9333 174.422 84.7877 176.232 84.5099H185.159C194.04 84.5099 201.307 91.2774 201.307 99.5483C201.307 107.819 194.04 114.587 185.159 114.587H149.882L142.082 114.585L132.478 99.0885L136.236 97.099L112.934 83.5837L111.096 110.414L116.839 107.371L116.057 107.935L130.766 131.529H152.584H153.159H184.629C203.518 131.529 218.973 117.137 218.973 99.5467C218.973 86.8187 210.883 75.7693 199.257 70.6292Z" fill="#191B3E"/>
</svg>
