<svg data-v-423bf9ae="" xmlns="http://www.w3.org/2000/svg" viewBox="0 0 849 110" class="iconLeft"><!----><!----><!----><g data-v-423bf9ae="" id="33e98bf6-855b-4850-b8eb-93137abf1542" fill="#5152bb" transform="matrix(4.92206705261137,0,0,4.92206705261137,117.38819270858573,6.550091639889025)"><path d="M8.76 12.28C8.76 12.38 8.75 13.22 8.22 14.07C7.73 14.88 6.72 15.83 4.66 15.83C3.04 15.83 1.76 15.15 1.08 13.93C0.76 13.34 0.63 12.77 0.59 12.40C0.59 12.38 0.57 12.35 0.57 12.32C0.57 12.18 0.69 12.05 0.83 12.04L2.55 12.04C2.66 12.05 2.74 12.12 2.77 12.24L2.77 12.25C2.77 12.26 2.79 12.28 2.79 12.29C2.81 12.46 2.88 12.70 3.02 12.91C3.32 13.40 3.86 13.65 4.66 13.65C5.52 13.65 6.06 13.41 6.36 12.94C6.55 12.61 6.58 12.26 6.58 12.26C6.58 11.87 6.48 11.41 5.75 11.12C5.22 10.89 4.66 10.88 4.66 10.88C4.56 10.88 3.67 10.86 2.74 10.50C1.33 9.93 0.56 8.81 0.56 7.34C0.56 7.20 0.59 5.89 1.61 4.87C2.34 4.13 3.37 3.75 4.66 3.75C5.49 3.75 6.68 3.93 7.59 4.86C8.47 5.75 8.69 6.89 8.75 7.45L8.75 7.48C8.75 7.64 8.64 7.77 8.48 7.77L6.79 7.77C6.68 7.76 6.58 7.66 6.55 7.55L6.55 7.50C6.51 7.31 6.44 7.03 6.30 6.75C6.10 6.40 5.73 5.94 4.66 5.94C3.98 5.94 3.47 6.09 3.15 6.41C2.77 6.79 2.74 7.34 2.74 7.34C2.74 7.73 2.84 8.18 3.57 8.47C4.10 8.68 4.66 8.69 4.66 8.69C4.76 8.69 5.66 8.71 6.58 9.09C7.99 9.67 8.76 10.81 8.76 12.28ZM18.37 12.05C18.37 13.22 17.89 14.22 17.01 14.92C16.27 15.50 15.30 15.82 14.27 15.82C13.23 15.82 12.26 15.50 11.52 14.92C10.64 14.22 10.16 13.22 10.16 12.05L10.16 4.07C10.16 3.92 10.29 3.78 10.44 3.78L12.08 3.78C12.24 3.78 12.35 3.92 12.35 4.07L12.35 12.05C12.35 13.58 14.07 13.64 14.27 13.64C14.46 13.64 16.18 13.58 16.18 12.05L16.18 4.07C16.18 3.92 16.31 3.78 16.45 3.78L18.10 3.78C18.24 3.78 18.37 3.92 18.37 4.07ZM27.97 12.28C27.97 12.38 27.96 13.22 27.43 14.07C26.94 14.88 25.93 15.83 23.87 15.83C22.25 15.83 20.97 15.15 20.29 13.93C19.96 13.34 19.84 12.77 19.80 12.40C19.80 12.38 19.78 12.35 19.78 12.32C19.78 12.18 19.89 12.05 20.03 12.04L21.76 12.04C21.87 12.05 21.95 12.12 21.98 12.24L21.98 12.25C21.98 12.26 21.99 12.28 21.99 12.29C22.02 12.46 22.09 12.70 22.23 12.91C22.53 13.40 23.07 13.65 23.87 13.65C24.72 13.65 25.27 13.41 25.56 12.94C25.76 12.61 25.79 12.26 25.79 12.26C25.79 11.87 25.69 11.41 24.96 11.12C24.43 10.89 23.87 10.88 23.87 10.88C23.77 10.88 22.88 10.86 21.95 10.50C20.54 9.93 19.77 8.81 19.77 7.34C19.77 7.20 19.80 5.89 20.82 4.87C21.55 4.13 22.58 3.75 23.87 3.75C24.70 3.75 25.89 3.93 26.80 4.86C27.68 5.75 27.90 6.89 27.96 7.45L27.96 7.48C27.96 7.64 27.85 7.77 27.69 7.77L26.00 7.77C25.89 7.76 25.79 7.66 25.76 7.55L25.76 7.50C25.72 7.31 25.65 7.03 25.51 6.75C25.31 6.40 24.93 5.94 23.87 5.94C23.18 5.94 22.68 6.09 22.36 6.41C21.98 6.79 21.95 7.34 21.95 7.34C21.95 7.73 22.05 8.18 22.78 8.47C23.31 8.68 23.87 8.69 23.87 8.69C23.97 8.69 24.86 8.71 25.79 9.09C27.20 9.67 27.97 10.81 27.97 12.28ZM36.90 4.79C36.08 4.13 34.94 3.78 33.61 3.78L29.79 3.78C29.64 3.78 29.51 3.91 29.51 4.06L29.51 5.18L31.67 8.69L29.51 8.69L29.51 15.53C29.51 15.68 29.64 15.81 29.79 15.81L31.43 15.81C31.58 15.81 31.70 15.68 31.70 15.53L31.70 10.89L33.64 10.89C34.96 10.88 36.09 10.54 36.90 9.88C37.73 9.23 38.19 8.30 38.19 7.34C38.19 6.36 37.73 5.43 36.90 4.79ZM32.56 5.96L33.61 5.96C35.18 5.96 36.01 6.65 36.01 7.34C36.01 7.92 35.39 8.51 34.20 8.67ZM47.24 15.54C47.24 15.69 47.11 15.82 46.97 15.82L39.31 15.82C39.16 15.82 39.03 15.69 39.03 15.54L39.03 4.06C39.03 3.91 39.16 3.78 39.31 3.78L46.69 3.78C46.84 3.78 46.97 3.91 46.97 4.06L46.97 5.70C46.97 5.85 46.84 5.96 46.69 5.96L41.22 5.96L41.22 8.71L46.41 8.71C46.56 8.71 46.69 8.82 46.69 8.97L46.69 10.61C46.69 10.77 46.56 10.89 46.41 10.89L41.22 10.89L41.22 13.62L46.97 13.62C47.11 13.62 47.24 13.75 47.24 13.90ZM56.98 15.89L50.96 9.32L50.96 15.53C50.96 15.68 50.85 15.81 50.69 15.81L49.06 15.81C48.90 15.81 48.78 15.68 48.78 15.53L48.78 3.70L54.80 10.26L54.80 4.06C54.80 3.91 54.92 3.78 55.06 3.78L56.71 3.78C56.85 3.78 56.98 3.91 56.98 4.06ZM61.94 15.81C63.29 15.82 64.65 15.37 65.77 14.45C68.32 12.35 68.70 8.55 66.58 5.99C65.41 4.55 63.67 3.79 61.94 3.79L58.94 3.79C58.79 3.79 58.66 3.92 58.66 4.06L58.66 15.47C58.66 15.67 58.79 15.81 58.94 15.81ZM64.90 7.38C66.25 9.00 66.01 11.42 64.37 12.75C63.67 13.34 62.80 13.64 61.94 13.62L60.84 13.62L60.84 5.98L61.94 5.98C63.04 5.98 64.15 6.45 64.90 7.38ZM77.56 15.54C77.56 15.69 77.43 15.82 77.29 15.82L69.64 15.82C69.48 15.82 69.36 15.69 69.36 15.54L69.36 4.06C69.36 3.91 69.48 3.78 69.64 3.78L77.01 3.78C77.17 3.78 77.29 3.91 77.29 4.06L77.29 5.70C77.29 5.85 77.17 5.96 77.01 5.96L71.54 5.96L71.54 8.71L76.73 8.71C76.89 8.71 77.01 8.82 77.01 8.97L77.01 10.61C77.01 10.77 76.89 10.89 76.73 10.89L71.54 10.89L71.54 13.62L77.29 13.62C77.43 13.62 77.56 13.75 77.56 13.90ZM82.38 15.81C83.73 15.82 85.09 15.37 86.21 14.45C88.76 12.35 89.14 8.55 87.02 5.99C85.85 4.55 84.11 3.79 82.38 3.79L79.38 3.79C79.23 3.79 79.10 3.92 79.10 4.06L79.10 15.47C79.10 15.67 79.23 15.81 79.38 15.81ZM85.34 7.38C86.69 9.00 86.45 11.42 84.81 12.75C84.11 13.34 83.24 13.64 82.38 13.62L81.28 13.62L81.28 5.98L82.38 5.98C83.48 5.98 84.59 6.45 85.34 7.38ZM103.78 4.07C103.78 4.10 103.78 4.13 103.77 4.16L100.90 15.58C100.90 15.60 100.88 15.61 100.88 15.62C100.86 15.74 100.74 15.82 100.63 15.82L98.83 15.82C98.70 15.82 98.60 15.74 98.57 15.61L95.69 4.16C95.69 4.14 95.68 4.14 95.68 4.13L95.68 4.07C95.68 3.91 95.80 3.78 95.94 3.78L97.64 3.78C97.76 3.78 97.86 3.86 97.90 3.99L97.90 4.02L99.72 11.30L101.56 4.02L101.56 3.99C101.60 3.86 101.70 3.78 101.82 3.78L103.50 3.78C103.66 3.78 103.78 3.91 103.78 4.07ZM111.64 11.16C111.64 11.00 111.51 10.89 111.36 10.89L110.43 10.89L108.72 4.05L108.71 3.98C108.67 3.88 108.57 3.81 108.46 3.81L106.62 3.81C106.51 3.81 106.41 3.88 106.37 3.98L106.36 4.06L103.52 15.41C103.52 15.43 103.52 15.44 103.50 15.44L103.50 15.50C103.50 15.67 103.63 15.79 103.77 15.79L105.46 15.79C105.57 15.79 105.69 15.71 105.71 15.60C105.71 15.58 105.73 15.57 105.73 15.57L106.34 13.06L108.74 13.06L109.35 15.55L109.37 15.60C109.41 15.71 109.51 15.79 109.62 15.79L111.31 15.79C111.47 15.79 111.58 15.67 111.58 15.50L111.58 15.47L111.57 15.40L110.98 13.06L111.36 13.06C111.51 13.06 111.64 12.95 111.64 12.80ZM106.89 10.89L107.55 8.30L108.19 10.89ZM120.02 15.54C120.02 15.69 119.87 15.81 119.67 15.81L113.74 15.81C113.58 15.81 113.46 15.69 113.46 15.54L113.46 4.12C113.46 3.93 113.58 3.78 113.74 3.78L115.37 3.78C115.53 3.78 115.64 3.93 115.64 4.12L115.64 13.62L119.67 13.62C119.87 13.62 120.02 13.75 120.02 13.90ZM129.21 12.05C129.21 13.22 128.73 14.22 127.85 14.92C127.11 15.50 126.14 15.82 125.10 15.82C124.07 15.82 123.10 15.50 122.36 14.92C121.48 14.22 121.00 13.22 121.00 12.05L121.00 4.07C121.00 3.92 121.13 3.78 121.28 3.78L122.92 3.78C123.07 3.78 123.19 3.92 123.19 4.07L123.19 12.05C123.19 13.58 124.91 13.64 125.10 13.64C125.30 13.64 127.02 13.58 127.02 12.05L127.02 4.07C127.02 3.92 127.15 3.78 127.29 3.78L128.94 3.78C129.08 3.78 129.21 3.92 129.21 4.07ZM139.09 15.54C139.09 15.69 138.96 15.82 138.82 15.82L131.17 15.82C131.01 15.82 130.89 15.69 130.89 15.54L130.89 4.06C130.89 3.91 131.01 3.78 131.17 3.78L138.54 3.78C138.70 3.78 138.82 3.91 138.82 4.06L138.82 5.70C138.82 5.85 138.70 5.96 138.54 5.96L133.07 5.96L133.07 8.71L138.26 8.71C138.42 8.71 138.54 8.82 138.54 8.97L138.54 10.61C138.54 10.77 138.42 10.89 138.26 10.89L133.07 10.89L133.07 13.62L138.82 13.62C138.96 13.62 139.09 13.75 139.09 13.90ZM148.55 12.28C148.55 12.38 148.54 13.22 148.01 14.07C147.52 14.88 146.51 15.83 144.45 15.83C142.83 15.83 141.55 15.15 140.87 13.93C140.55 13.34 140.42 12.77 140.38 12.40C140.38 12.38 140.36 12.35 140.36 12.32C140.36 12.18 140.48 12.05 140.62 12.04L142.34 12.04C142.45 12.05 142.53 12.12 142.56 12.24L142.56 12.25C142.56 12.26 142.58 12.28 142.58 12.29C142.60 12.46 142.67 12.70 142.81 12.91C143.11 13.40 143.65 13.65 144.45 13.65C145.31 13.65 145.85 13.41 146.15 12.94C146.34 12.61 146.37 12.26 146.37 12.26C146.37 11.87 146.27 11.41 145.54 11.12C145.01 10.89 144.45 10.88 144.45 10.88C144.35 10.88 143.46 10.86 142.53 10.50C141.12 9.93 140.35 8.81 140.35 7.34C140.35 7.20 140.38 5.89 141.40 4.87C142.13 4.13 143.16 3.75 144.45 3.75C145.28 3.75 146.47 3.93 147.38 4.86C148.26 5.75 148.48 6.89 148.54 7.45L148.54 7.48C148.54 7.64 148.43 7.77 148.27 7.77L146.58 7.77C146.47 7.76 146.37 7.66 146.34 7.55L146.34 7.50C146.30 7.31 146.23 7.03 146.09 6.75C145.89 6.40 145.52 5.94 144.45 5.94C143.77 5.94 143.26 6.09 142.94 6.41C142.56 6.79 142.53 7.34 142.53 7.34C142.53 7.73 142.63 8.18 143.36 8.47C143.89 8.68 144.45 8.69 144.45 8.69C144.55 8.69 145.45 8.71 146.37 9.09C147.78 9.67 148.55 10.81 148.55 12.28Z"></path></g><!----><g data-v-423bf9ae="" id="8e0785e9-d85b-4778-a497-f753e781092c" transform="matrix(1.1031444125705294,0,0,1.1031444125705294,-4.547775102090796,0.2382582256489627)" stroke="none" fill="#5152bb"><path d="M92.115 16.646a187.821 187.821 0 0 1-14.671-4.095C68.639 9.696 58.204 5.539 50.082 0 32.712 11.713 4.61 17.369 4.61 17.369s.084 24.041 1.591 33.582c1.435 9.08 5.127 16.719 9.795 23.048.315.428.635.851.959 1.266a65.9 65.9 0 0 0 6.841 7.476c.385.362.77.719 1.158 1.066 12 10.809 25.127 15.476 25.127 15.476S88.322 85.631 93.8 50.951c1.508-9.542 1.591-33.582 1.591-33.582s-1.208-.24-3.276-.723zm-1.032 33.875c-1.179 7.459-4.077 14.507-8.617 20.946-3.669 5.206-8.416 10.037-14.109 14.362-8.006 6.08-15.686 9.453-18.276 10.501-2.603-1.046-10.315-4.421-18.357-10.504a74.78 74.78 0 0 1-5.98-5.032 63.014 63.014 0 0 1-6.827-7.493 62.665 62.665 0 0 1-.95-1.272c-.136-.188-.275-.375-.409-.565-4.555-6.438-7.461-13.484-8.64-20.942-1.192-7.55-1.475-24.8-1.539-30.941a193.131 193.131 0 0 0 14.274-3.878c11.615-3.635 21.164-7.805 28.42-12.41 6.583 4.224 15.037 8.063 25.191 11.439.552.184 1.112.366 1.675.547.493.158.988.317 1.489.473a190.128 190.128 0 0 0 11.403 3.178c1.088.266 2.027.485 2.79.657-.063 6.148-.346 23.388-1.538 30.934z"></path><path d="M85.14 21.398a159.675 159.675 0 0 1-12.863-3.679C65.041 15.306 56.71 11.894 50.15 7.421c-14.773 9.961-38.673 14.772-38.673 14.772s.07 20.447 1.353 28.561c1.154 7.306 4.026 13.513 7.693 18.719.307.437.62.864.937 1.286 2.106 2.798 4.434 5.29 6.827 7.493.389.356.78.707 1.171 1.05C39.474 88.065 50.15 91.86 50.15 91.86s32.524-11.61 37.184-41.106c1.282-8.114 1.352-28.561 1.352-28.561s-.63-.125-1.742-.375c-.506-.113-1.111-.254-1.804-.42zm1.965 2.068c-.042 4.588-.261 20.3-1.325 27.043-1.021 6.471-3.537 12.58-7.475 18.16-3.172 4.495-7.271 8.664-12.185 12.39-7.185 5.449-14.056 8.362-15.973 9.12-1.916-.751-8.759-3.638-15.965-9.065a65.754 65.754 0 0 1-3.61-2.925 67.063 67.063 0 0 1-1.172-1.052c-2.578-2.367-4.859-4.876-6.818-7.501a45.399 45.399 0 0 1-.675-.925c-.087-.123-.169-.247-.255-.368-3.821-5.493-6.269-11.489-7.271-17.834-1.066-6.745-1.283-22.464-1.325-27.047a161.006 161.006 0 0 0 12.686-3.418c10.038-3.142 18.24-6.75 24.402-10.736 5.437 3.556 12.448 6.794 20.889 9.654a164.455 164.455 0 0 0 3.454 1.124 161.338 161.338 0 0 0 11.141 3.046c.577.133 1.071.244 1.477.334z"></path><path d="M61.838 40.458h-.983v-3.645c0-5.891-4.793-10.685-10.685-10.685-5.891 0-10.684 4.793-10.684 10.685v3.645h-.982a3.537 3.537 0 0 0-3.538 3.537v3.666h30.41v-3.666a3.54 3.54 0 0 0-3.538-3.537zm-5.307 0H43.809v-3.645a6.368 6.368 0 0 1 6.361-6.361 6.369 6.369 0 0 1 6.362 6.361v3.645zM34.965 49.233h30.41v7.785h-30.41zM34.965 61.589a3.538 3.538 0 0 0 3.538 3.538h23.335a3.538 3.538 0 0 0 3.537-3.538V58.59h-30.41v2.999z"></path></g><!----></svg>